<svg xmlns="http://www.w3.org/2000/svg" xmlns:xlink="http://www.w3.org/1999/xlink" width="500" zoomAndPan="magnify" viewBox="0 0 375 374.999991" height="500" preserveAspectRatio="xMidYMid meet" version="1.0"><defs><clipPath id="id1"><path d="M 22.847656 18.75 L 363.539062 18.75 L 363.539062 356.25 L 22.847656 356.25 Z M 22.847656 18.75 " clip-rule="nonzero"/></clipPath></defs><path fill="rgb(18.818665%, 43.919373%, 77.648926%)" d="M 46.753906 171.445312 L 45.132812 169.488281 C 45.132812 169.488281 45.859375 170.132812 46.984375 171.070312 C 46.90625 171.195312 46.828125 171.320312 46.753906 171.445312 Z M 334.3125 251.710938 C 323.652344 245.820312 313.210938 240.824219 310.0625 239.34375 L 311.324219 236.945312 L 275.917969 218.050781 C 275.917969 218.050781 275.847656 218.246094 275.765625 218.574219 C 259.023438 210.53125 238.386719 202.550781 219.753906 200.828125 L 206.035156 188.234375 L 198.828125 190.691406 L 198.925781 170.21875 C 201.894531 167.910156 204.660156 165.308594 207.136719 162.457031 C 207.78125 162.695312 208.46875 162.941406 209.214844 163.195312 C 218.882812 166.484375 225.5 155.660156 225.515625 155.632812 C 225.515625 155.632812 225.515625 155.632812 225.519531 155.632812 C 231.957031 155.394531 235.84375 153.324219 238.171875 150.640625 C 239.203125 151.0625 240.378906 151.503906 241.742188 151.964844 C 251.410156 155.257812 258.027344 144.429688 258.046875 144.40625 C 277.929688 143.667969 273.585938 125.515625 273.585938 125.515625 C 282.5 120.421875 274.855469 103.117188 274.855469 103.117188 C 284.28125 83.007812 264.667969 79.953125 264.667969 79.953125 C 266.199219 59.335938 253.460938 58.316406 253.460938 58.316406 C 253.460938 58.316406 256.261719 46.101562 248.109375 37.953125 C 239.957031 29.8125 230.023438 37.953125 230.023438 37.953125 C 230.023438 37.953125 225.4375 22.175781 212.597656 20.644531 C 199.757812 19.113281 191.304688 28.792969 191.304688 28.792969 C 191.304688 28.792969 187.230469 20.902344 173.476562 20.648438 C 159.71875 20.390625 158.273438 37.953125 158.273438 37.953125 L 157.289062 38.050781 C 155.097656 35.695312 150.226562 32.046875 140.945312 31.878906 C 127.191406 31.621094 125.742188 49.183594 125.742188 49.183594 C 99.078125 51.730469 104.992188 72.601562 104.992188 72.601562 C 90.957031 84.300781 100.65625 97.777344 100.671875 97.796875 C 100.671875 97.800781 100.671875 97.800781 100.671875 97.800781 C 90.457031 117.144531 112.703125 120.617188 112.703125 120.617188 C 112.734375 131.980469 125.742188 127.980469 125.742188 127.980469 C 126.019531 129.285156 126.347656 130.535156 126.714844 131.742188 C 125.757812 132.261719 125.179688 132.625 125.179688 132.625 C 125.179688 132.625 118.535156 132.113281 115.617188 134.316406 C 112.699219 136.515625 110.386719 142.09375 113.445312 146.457031 C 115.933594 150.003906 119.957031 151.523438 123 151.570312 L 130.363281 171.621094 L 139.710938 169.1875 C 139.710938 169.1875 139.699219 168.046875 139.699219 166.234375 C 141.554688 169.226562 144.160156 172.308594 147.71875 175.523438 C 153.070312 180.363281 160.269531 182.402344 168.042969 182.152344 L 167.582031 193.832031 L 153.953125 192.492188 L 146.722656 204.441406 C 133.363281 207.324219 119.464844 217.171875 106.273438 228.996094 C 106.183594 228.871094 106.128906 228.796875 106.128906 228.796875 L 73.136719 259.355469 L 75.054688 261.875 L 63.410156 273.339844 L 64.765625 193.269531 C 74.074219 189.027344 86.714844 183 88.703125 178.601562 C 89.886719 175.984375 89.101562 174.640625 87.40625 174.125 C 96.445312 171.433594 104.644531 168.75 107.734375 167.726562 L 109.25 173.222656 L 114.164062 171.871094 L 108.847656 152.585938 L 103.929688 153.9375 L 105.609375 160.03125 C 102.207031 160.671875 92.699219 162.535156 82.855469 165.058594 C 81.019531 157.339844 74.683594 152.644531 69.988281 150.15625 C 66.742188 148.4375 62.953125 148.113281 59.445312 149.1875 C 51.707031 151.5625 42.027344 154.683594 39.769531 166.75 C 36.617188 183.605469 11.457031 297.640625 33.601562 328.746094 C 51.238281 353.515625 98.785156 295.699219 98.785156 295.699219 L 79.132812 267.074219 C 79.246094 266.96875 79.519531 266.707031 79.921875 266.332031 L 102.238281 300.011719 L 121.875 280.109375 C 121.933594 280.976562 121.996094 281.839844 122.066406 282.695312 L 122.089844 281.6875 L 124.636719 319.773438 C 121.816406 320.507812 118.914062 322.191406 116.847656 322.78125 C 112.953125 323.890625 114.992188 318.335938 108.136719 317.226562 C 101.277344 316.113281 97.753906 323.890625 99.050781 328.335938 C 99.394531 329.511719 100.011719 330.90625 100.730469 332.320312 L 85.875 332.320312 C 83.394531 332.320312 82.050781 336.277344 83.652344 338.851562 L 86.503906 343.421875 C 87.054688 344.308594 87.867188 344.820312 88.722656 344.820312 L 97.0625 344.820312 C 97.113281 345.601562 97.28125 346.378906 97.597656 347.066406 L 99.832031 351.941406 C 100.269531 352.886719 100.910156 353.433594 101.578125 353.433594 L 126.886719 353.433594 L 126.886719 353.445312 L 256.824219 354.554688 C 256.824219 354.554688 259.121094 322.445312 260.140625 297.347656 C 279.667969 301.4375 304.445312 304.386719 331.507812 302.25 C 355.914062 300.324219 363.871094 282.507812 361.371094 272.230469 C 360.121094 267.09375 347.0625 258.761719 334.3125 251.710938 " fill-opacity="1" fill-rule="nonzero"/><path fill="rgb(21.958923%, 71.369934%, 100%)" d="M 175.230469 65.34375 C 175.230469 65.34375 171.535156 76.726562 180.5625 81.320312 C 180.5625 81.320312 188.03125 95.246094 198.066406 91.273438 C 197.238281 92.550781 201.007812 100.710938 210.523438 101.179688 C 220.039062 101.644531 224.386719 96.109375 224.386719 96.109375 C 224.386719 96.109375 213.339844 97.496094 208.125 94.210938 C 202.910156 90.925781 201.699219 84.53125 201.699219 84.53125 C 201.699219 84.53125 194.605469 86.164062 189.933594 83.273438 C 185.265625 80.382812 185.4375 74.332031 185.4375 74.332031 C 185.4375 74.332031 176.441406 73.640625 175.230469 65.34375 Z M 203.613281 166.0625 C 204.839844 164.882812 206.019531 163.65625 207.136719 162.371094 C 207.136719 162.371094 204.519531 163.992188 203.613281 166.0625 Z M 132.5 109.769531 C 138.902344 110.289062 144.148438 104.191406 144.148438 104.191406 C 144.148438 104.191406 148.070312 108.640625 154.472656 105.488281 C 160.871094 102.335938 161.40625 93.339844 161.40625 93.339844 C 161.40625 93.339844 166.402344 93.574219 165.898438 87.011719 C 165.390625 80.457031 164.585938 76.320312 164.585938 76.320312 C 164.585938 76.320312 162.945312 88.160156 157.238281 90.753906 C 157.238281 90.753906 156.167969 97.667969 151.425781 99.570312 C 146.683594 101.472656 141.4375 98.535156 141.4375 98.535156 C 141.4375 98.535156 141.148438 104.234375 134.746094 105.273438 C 128.347656 106.3125 124.335938 101.179688 124.335938 101.179688 C 124.335938 101.179688 126.097656 109.25 132.5 109.769531 Z M 100.671875 97.714844 C 90.457031 117.058594 112.703125 120.53125 112.703125 120.53125 C 112.722656 128.042969 118.40625 128.84375 122.265625 128.519531 C 118.945312 125.667969 115.292969 121.101562 117.25 115.804688 C 117.25 115.804688 105.089844 111.503906 106.25 106.230469 C 107.414062 100.953125 108.035156 96.804688 108.035156 96.804688 C 108.035156 96.804688 100.25 83.472656 115.074219 70.257812 C 115.074219 70.257812 119.179688 54.96875 133.019531 59.117188 C 133.019531 59.117188 141.4375 35.957031 166 49.785156 C 166 49.785156 173.621094 28.003906 194.320312 42.871094 C 194.320312 42.871094 219.910156 24.199219 227.5 53.589844 C 227.5 53.589844 248.585938 48.898438 249.625 70.257812 C 249.625 70.257812 263.117188 75.367188 255.503906 96.457031 C 255.503906 96.457031 268.652344 114.257812 264.5 122.46875 C 260.347656 130.683594 252.902344 134.832031 252.902344 134.832031 C 252.902344 134.832031 251.796875 148.707031 242.40625 147.476562 C 233.015625 146.242188 233.015625 146.242188 233.015625 146.242188 C 233.015625 146.242188 232.371094 152.269531 224.386719 153.921875 C 216.40625 155.578125 210.175781 155.996094 210.175781 155.996094 L 207.136719 162.371094 C 207.78125 162.613281 208.46875 162.859375 209.214844 163.113281 C 218.882812 166.402344 225.5 155.574219 225.515625 155.550781 C 225.515625 155.550781 225.515625 155.550781 225.519531 155.550781 C 231.957031 155.3125 235.84375 153.242188 238.171875 150.558594 C 239.203125 150.976562 240.378906 151.421875 241.742188 151.882812 C 251.410156 155.171875 258.027344 144.347656 258.046875 144.320312 C 277.929688 143.582031 273.585938 125.429688 273.585938 125.429688 C 282.5 120.335938 274.855469 103.03125 274.855469 103.03125 C 284.28125 82.921875 264.667969 79.867188 264.667969 79.867188 C 266.199219 59.253906 253.460938 58.234375 253.460938 58.234375 C 253.460938 58.234375 256.261719 46.015625 248.109375 37.871094 C 239.957031 29.726562 230.023438 37.871094 230.023438 37.871094 C 230.023438 37.871094 225.4375 22.089844 212.597656 20.558594 C 199.757812 19.03125 191.304688 28.707031 191.304688 28.707031 C 191.304688 28.707031 187.230469 20.820312 173.476562 20.566406 C 159.71875 20.308594 158.273438 37.871094 158.273438 37.871094 L 157.289062 37.964844 C 155.097656 35.613281 150.226562 31.964844 140.945312 31.792969 C 127.191406 31.539062 125.742188 49.101562 125.742188 49.101562 C 99.078125 51.644531 104.992188 72.519531 104.992188 72.519531 C 90.957031 84.214844 100.65625 97.691406 100.671875 97.714844 Z M 180.339844 171.535156 C 200.753906 164.082031 208.125 134.832031 208.125 134.832031 C 201.226562 132.757812 202.335938 122.46875 202.335938 122.46875 C 201.871094 117.945312 203.949219 108.988281 203.949219 108.988281 C 197.417969 111.046875 193.191406 103.46875 193.191406 103.46875 C 179.871094 105.375 174.480469 88.738281 174.480469 88.738281 C 175.691406 95.421875 167.734375 100.027344 167.734375 100.027344 C 165.195312 115.933594 146.183594 111.792969 146.183594 111.792969 L 142.476562 127.082031 C 142.476562 127.082031 147.53125 129.09375 148.097656 134.605469 C 149.511719 148.484375 141.4375 147.347656 141.4375 147.347656 L 141.4375 158.15625 C 141.4375 158.15625 151.425781 182.09375 180.339844 171.535156 Z M 166.738281 331.917969 L 171.941406 331.917969 C 171.941406 331.917969 171.921875 331.835938 171.894531 331.703125 L 166.496094 331.644531 Z M 148.765625 322.699219 C 141.328125 322.203125 134.886719 330.058594 134.886719 330.058594 L 132.929688 327.0625 C 132.929688 327.0625 134.289062 323.832031 129.777344 320.03125 C 128.234375 318.726562 126.4375 318.707031 124.605469 319.21875 L 124.636719 319.691406 C 121.816406 320.421875 118.914062 322.109375 116.847656 322.699219 C 116.128906 322.902344 115.613281 322.878906 115.203125 322.699219 C 111.808594 322.027344 111.679688 315.304688 103.972656 317.628906 C 101.675781 318.644531 100.078125 320.820312 99.308594 323.144531 C 98.710938 326.65625 99.949219 330.496094 100.082031 330.898438 C 100.089844 330.90625 100.09375 330.921875 100.101562 330.929688 L 166.496094 331.644531 L 163.796875 328.664062 C 163.796875 328.664062 156.203125 323.199219 148.765625 322.699219 Z M 80.828125 267.613281 L 128.734375 220.285156 C 136.6875 227.03125 152.761719 236.078125 181.632812 235.789062 C 217.800781 235.421875 234.722656 213.828125 240.257812 204.726562 C 233.34375 202.789062 226.421875 201.359375 219.753906 200.746094 L 206.035156 188.152344 L 198.828125 190.609375 L 198.890625 177.53125 C 198.890625 177.53125 187.179688 187.5 180.339844 189.980469 C 173.5 192.457031 167.828125 187.433594 167.828125 187.433594 L 167.582031 193.75 L 166.738281 193.667969 L 153.75 192.742188 L 146.722656 204.355469 C 144.8125 204.769531 142.890625 205.339844 140.957031 206.023438 C 135.210938 208.058594 129.402344 211.210938 123.625 215.128906 C 117.777344 219.09375 111.957031 223.816406 106.273438 228.914062 C 106.183594 228.785156 106.128906 228.710938 106.128906 228.710938 L 73.136719 259.273438 L 75.054688 261.792969 L 63.410156 273.253906 L 63.523438 266.617188 C 62.339844 268.039062 61.679688 268.84375 61.679688 268.84375 L 64.664062 283.578125 L 80.070312 268.359375 L 79.132812 266.988281 C 79.246094 266.882812 79.519531 266.625 79.921875 266.246094 Z M 196.019531 268.964844 C 196.019531 268.964844 239.992188 268.960938 258.496094 268.964844 C 299.460938 268.976562 323.667969 258.804688 323.667969 258.804688 C 323.667969 258.804688 235.296875 259.003906 219.753906 261.796875 C 204.210938 264.589844 196.019531 268.964844 196.019531 268.964844 Z M 115.679688 134.1875 C 118.886719 133.578125 121.59375 132.960938 123.523438 132.488281 C 121.378906 132.488281 117.691406 132.722656 115.679688 134.1875 Z M 182.296875 322.101562 C 170.558594 322.414062 171.613281 330.292969 171.894531 331.703125 L 192.054688 331.917969 C 192.054688 331.917969 195.183594 321.757812 182.296875 322.101562 Z M 82.855469 164.972656 C 81.019531 157.253906 74.683594 152.5625 69.988281 150.070312 C 66.742188 148.355469 62.953125 148.027344 59.445312 149.105469 C 58.378906 149.433594 57.277344 149.777344 56.164062 150.152344 C 49.261719 153.367188 43.4375 158.15625 43.4375 158.15625 C 43.4375 158.15625 44.558594 166.292969 55.859375 170.386719 C 67.164062 174.476562 82.855469 164.972656 82.855469 164.972656 Z M 275.917969 217.96875 C 275.917969 217.96875 275.847656 218.160156 275.765625 218.488281 C 271.675781 216.523438 267.351562 214.570312 262.882812 212.703125 C 262.917969 212.742188 284.238281 239.25 303.253906 245.121094 C 322.285156 251 333.089844 251.015625 333.089844 251.015625 C 333.089844 251.015625 333.066406 250.980469 333.03125 250.929688 C 322.824219 245.34375 313.082031 240.683594 310.0625 239.257812 L 311.324219 236.863281 Z M 152.730469 291.015625 L 126.609375 291.015625 C 126.609375 291.015625 131.113281 298.894531 141.148438 298.628906 C 151.183594 298.363281 159.832031 291.851562 164.851562 291.179688 C 169.867188 290.507812 184.898438 290.003906 184.898438 290.003906 L 184.898438 285.296875 L 168 285.296875 C 162.386719 285.296875 156.964844 287.328125 152.730469 291.015625 " fill-opacity="1" fill-rule="nonzero"/><g clip-path="url(#id1)"><path fill="rgb(12.939453%, 11.369324%, 11.369324%)" d="M 58.199219 352.824219 L 29.851562 352.824219 C 28.894531 352.824219 28.121094 353.601562 28.121094 354.554688 C 28.121094 355.511719 28.894531 356.28125 29.851562 356.28125 L 58.199219 356.28125 C 59.15625 356.28125 59.929688 355.511719 59.929688 354.554688 C 59.929688 353.601562 59.15625 352.824219 58.199219 352.824219 Z M 311.324219 352.824219 L 288.058594 352.824219 C 287.105469 352.824219 286.332031 353.601562 286.332031 354.554688 C 286.332031 355.511719 287.105469 356.28125 288.058594 356.28125 L 311.324219 356.28125 C 312.277344 356.28125 313.050781 355.511719 313.050781 354.554688 C 313.050781 353.601562 312.277344 352.824219 311.324219 352.824219 Z M 359.691406 272.636719 C 358.707031 268.597656 347.761719 261.261719 335.058594 254.109375 C 334.558594 253.828125 334.054688 253.546875 333.546875 253.265625 C 325.90625 249.019531 317.761719 244.890625 310.828125 241.609375 L 311.082031 242.015625 L 310.707031 241.828125 L 309.144531 244.789062 C 308.933594 245.195312 308.566406 245.5 308.128906 245.636719 C 307.960938 245.6875 307.785156 245.710938 307.617188 245.710938 C 307.335938 245.710938 307.058594 245.644531 306.808594 245.511719 C 306.769531 245.492188 306.699219 245.457031 306.613281 245.410156 L 300.289062 257.171875 C 310.3125 257.125 317.871094 257.164062 320.71875 257.183594 C 321.277344 257.1875 321.65625 257.191406 321.835938 257.191406 C 322.792969 257.199219 323.558594 257.980469 323.550781 258.933594 C 323.542969 259.886719 322.773438 260.648438 321.824219 260.648438 C 321.816406 260.648438 321.8125 260.648438 321.808594 260.648438 C 321.515625 260.644531 311.980469 260.574219 298.414062 260.65625 C 297.765625 260.660156 297.109375 260.664062 296.441406 260.671875 C 295.796875 260.675781 295.136719 260.679688 294.472656 260.6875 C 290.59375 260.714844 286.457031 260.761719 282.164062 260.824219 C 281.375 260.839844 280.582031 260.851562 279.785156 260.863281 C 278.996094 260.875 278.199219 260.890625 277.402344 260.902344 C 251.09375 261.363281 220.519531 262.527344 208 265.394531 C 200.398438 267.132812 194.6875 271.160156 191.019531 277.363281 C 189.777344 279.457031 188.878906 281.652344 188.21875 283.785156 C 188.039062 284.371094 187.878906 284.953125 187.734375 285.523438 C 187.585938 286.113281 187.453125 286.695312 187.34375 287.261719 C 187.269531 287.621094 187.203125 287.96875 187.140625 288.316406 C 187.039062 288.914062 186.957031 289.492188 186.890625 290.050781 C 186.8125 290.648438 186.753906 291.238281 186.710938 291.78125 C 186.527344 294.171875 186.632812 295.972656 186.78125 296.699219 C 187.316406 297.007812 188.957031 297.164062 190.691406 297.101562 C 190.742188 295.242188 190.976562 293.402344 191.292969 291.699219 C 191.40625 291.097656 191.523438 290.523438 191.652344 289.960938 C 191.789062 289.359375 191.929688 288.769531 192.078125 288.226562 C 192.152344 287.941406 192.226562 287.675781 192.300781 287.410156 C 192.511719 286.664062 192.722656 285.984375 192.914062 285.40625 C 193.164062 284.640625 193.378906 284.046875 193.527344 283.660156 C 193.636719 283.378906 193.703125 283.199219 193.722656 283.15625 C 194.085938 282.273438 195.097656 281.851562 195.976562 282.214844 C 196.863281 282.574219 197.289062 283.585938 196.925781 284.464844 C 196.914062 284.496094 196.371094 285.839844 195.773438 287.886719 C 195.46875 288.921875 195.152344 290.128906 194.875 291.445312 C 194.484375 293.300781 194.183594 295.355469 194.140625 297.40625 C 195.519531 297.503906 197.714844 297.019531 199.265625 296.472656 C 199.441406 289.464844 202.183594 282.679688 202.308594 282.371094 C 202.671875 281.488281 203.679688 281.066406 204.566406 281.425781 C 205.449219 281.789062 205.871094 282.796875 205.511719 283.679688 C 205.480469 283.75 202.960938 290.011719 202.738281 296.285156 C 204.351562 296.171875 206.117188 295.878906 206.902344 295.722656 C 206.972656 295.710938 207.042969 295.699219 207.113281 295.695312 C 212.09375 295.320312 214.761719 287.082031 215.367188 283.941406 C 215.46875 283.421875 215.800781 282.976562 216.269531 282.734375 C 216.742188 282.492188 217.296875 282.476562 217.78125 282.691406 C 218.058594 282.820312 233.847656 289.820312 258.496094 295.179688 C 259.0625 295.304688 259.636719 295.429688 260.214844 295.550781 C 260.785156 295.667969 261.359375 295.789062 261.9375 295.90625 C 281.152344 299.828125 305.246094 302.589844 331.375 300.527344 C 345.128906 299.445312 352.246094 293.378906 355.796875 288.480469 C 359.371094 283.542969 360.867188 277.472656 359.691406 272.636719 Z M 166.226562 287.753906 C 163.964844 287.808594 161.722656 288.425781 159.746094 289.535156 L 154.242188 292.625 C 153.96875 292.78125 153.65625 292.867188 153.339844 292.847656 L 130.167969 292.128906 C 132.402344 294.429688 136.597656 297.328125 143.25 296.804688 C 150.371094 296.253906 156.300781 293.425781 160.019531 291.148438 C 162.585938 289.574219 165.570312 288.714844 168.65625 288.65625 L 183.617188 288.382812 C 183.667969 288.039062 183.722656 287.695312 183.785156 287.34375 Z M 258.355469 298.679688 C 237.855469 294.265625 223.273438 288.703125 218.261719 286.648438 C 217.15625 290.53125 214.085938 298.550781 207.480469 299.132812 C 206.695312 299.285156 202.933594 299.980469 200.402344 299.738281 C 198.902344 300.265625 194.839844 301.5 192.136719 300.480469 C 189.164062 300.769531 184.554688 300.746094 183.558594 298.007812 C 183.320312 297.355469 183.050781 295.039062 183.246094 291.847656 L 168.722656 292.113281 C 166.253906 292.160156 163.867188 292.847656 161.828125 294.097656 C 157.785156 296.570312 151.324219 299.648438 143.519531 300.25 C 142.890625 300.300781 142.273438 300.324219 141.675781 300.324219 C 130.074219 300.324219 125.289062 291.488281 125.078125 291.089844 C 124.792969 290.546875 124.816406 289.890625 125.144531 289.371094 C 125.472656 288.847656 126.054688 288.535156 126.664062 288.558594 L 152.96875 289.375 L 158.050781 286.519531 C 160.515625 285.136719 163.316406 284.367188 166.144531 284.300781 L 184.570312 283.871094 C 185.230469 281.484375 186.171875 278.992188 187.5 276.550781 C 191.636719 268.960938 198.273438 264.074219 207.226562 262.027344 C 217.175781 259.746094 237.6875 258.519531 258.652344 257.867188 C 258.4375 257.609375 258.292969 257.292969 258.257812 256.933594 C 257.535156 249.742188 255.355469 240.96875 255.335938 240.882812 C 255.101562 239.957031 255.664062 239.019531 256.59375 238.789062 C 257.515625 238.558594 258.457031 239.117188 258.691406 240.046875 C 258.78125 240.414062 260.953125 249.144531 261.699219 256.589844 C 261.742188 257.035156 261.609375 257.453125 261.363281 257.789062 C 267.890625 257.597656 274.414062 257.460938 280.640625 257.367188 C 281.4375 257.355469 282.230469 257.34375 283.019531 257.335938 C 283.816406 257.320312 284.605469 257.308594 285.390625 257.300781 C 289.222656 257.253906 292.902344 257.21875 296.347656 257.195312 L 303.558594 243.78125 C 302.460938 243.195312 301.144531 242.484375 299.6875 241.695312 C 299.179688 241.421875 298.660156 241.136719 298.121094 240.84375 C 298.089844 240.828125 298.058594 240.8125 298.023438 240.792969 L 297.878906 241.109375 L 295.457031 246.3125 L 291.203125 255.453125 C 290.910156 256.085938 290.285156 256.453125 289.632812 256.453125 C 289.390625 256.453125 289.140625 256.402344 288.90625 256.292969 C 288.214844 255.972656 287.84375 255.253906 287.921875 254.539062 C 287.945312 254.355469 287.984375 254.171875 288.066406 253.996094 L 290.125 249.574219 L 292.546875 244.371094 L 294.984375 239.132812 C 287.734375 235.144531 279.414062 230.421875 277.042969 228.460938 C 273.652344 225.664062 273.496094 221.914062 273.808594 219.589844 C 257.609375 211.898438 237.988281 204.402344 220.289062 202.621094 C 214.480469 207.394531 207.8125 210.800781 200.460938 212.808594 C 199.886719 212.964844 199.308594 213.117188 198.726562 213.257812 C 198.152344 213.394531 197.578125 213.527344 196.992188 213.648438 C 196.765625 213.695312 196.535156 213.738281 196.304688 213.78125 C 192.335938 214.554688 188.195312 214.957031 183.894531 214.957031 C 179.964844 214.957031 175.902344 214.628906 171.730469 213.972656 C 170.039062 213.707031 168.398438 213.394531 166.816406 213.058594 C 166.238281 212.933594 165.664062 212.808594 165.101562 212.675781 C 155.3125 210.390625 148.25 207.117188 146.515625 206.269531 C 134.023438 209.152344 120.96875 218.277344 108.46875 229.347656 C 109.574219 231.558594 110.882812 235.792969 108.195312 240.570312 C 106.949219 242.78125 96.820312 252.65625 88.941406 260.171875 L 108.917969 290.777344 L 120.101562 279.445312 C 119.148438 263.175781 121.070312 244.921875 121.089844 244.726562 C 121.191406 243.777344 122.050781 243.089844 122.996094 243.191406 C 123.945312 243.292969 124.632812 244.144531 124.53125 245.09375 C 124.511719 245.285156 122.609375 263.347656 123.558594 279.335938 C 123.636719 279.507812 123.691406 279.695312 123.703125 279.890625 L 126.234375 317.753906 C 128.578125 317.539062 130.886719 318.109375 132.675781 320.429688 C 134.386719 322.65625 135.1875 326.609375 134.25 330.375 C 135.488281 327.714844 137.359375 325.773438 137.480469 325.648438 C 137.589844 325.535156 137.714844 325.4375 137.851562 325.359375 C 138.371094 325.0625 150.648438 318.078125 159 322.554688 C 164.074219 325.273438 165.796875 328.351562 166.835938 330.589844 L 169.605469 330.589844 C 169.542969 330.300781 169.484375 330 169.441406 329.671875 C 169.152344 327.449219 170.324219 325.125 172.667969 323.300781 C 175.582031 321.03125 181.082031 319.210938 186.992188 321.542969 C 190.765625 323.035156 193.242188 326.460938 193.703125 330.589844 L 211.65625 330.589844 C 213.171875 330.589844 214.539062 331.433594 215.410156 332.90625 C 216.5625 334.863281 216.597656 337.519531 215.492188 339.507812 L 212.964844 344.082031 C 212.109375 345.625 210.671875 346.550781 209.125 346.550781 L 201.933594 346.550781 C 201.847656 346.886719 201.746094 347.214844 201.617188 347.527344 L 199.65625 352.339844 L 255.214844 352.8125 C 255.679688 346.128906 257.449219 320.105469 258.355469 298.679688 Z M 172.871094 329.226562 C 172.941406 329.761719 173.058594 330.210938 173.199219 330.589844 L 176.90625 330.589844 L 177.464844 330.402344 C 177.972656 330.234375 178.519531 330.3125 178.953125 330.589844 L 190.210938 330.589844 C 189.851562 328.253906 188.546875 325.878906 185.71875 324.761719 C 181.167969 322.957031 176.988281 324.320312 174.792969 326.03125 C 173.484375 327.050781 172.746094 328.273438 172.871094 329.226562 Z M 162.945312 330.589844 C 162 329.003906 160.480469 327.273438 157.363281 325.601562 C 151.21875 322.304688 141.351562 327.390625 139.792969 328.238281 C 139.332031 328.742188 138.65625 329.589844 138.046875 330.589844 Z M 198.609375 343.09375 L 209.125 343.09375 C 209.386719 343.09375 209.703125 342.820312 209.933594 342.40625 L 212.464844 337.835938 C 213.050781 336.78125 212.886719 335.445312 212.425781 334.664062 C 212.320312 334.476562 212.027344 334.046875 211.65625 334.046875 L 85.875 334.046875 C 85.488281 334.046875 85.183594 334.511719 85.074219 334.710938 C 84.617188 335.539062 84.484375 336.910156 85.125 337.9375 L 87.96875 342.507812 C 88.195312 342.867188 88.480469 343.09375 88.722656 343.09375 Z M 198.28125 346.550781 L 99.265625 346.550781 L 101.40625 351.222656 C 101.53125 351.488281 101.648438 351.636719 101.714844 351.707031 L 196.066406 351.707031 C 196.144531 351.625 196.285156 351.441406 196.425781 351.097656 Z M 100.714844 327.851562 C 100.949219 328.667969 101.339844 329.609375 101.804688 330.589844 L 130.550781 330.589844 C 131.667969 327.671875 131.238281 324.234375 129.933594 322.539062 C 129.054688 321.398438 127.890625 321.054688 126.46875 321.191406 C 125.929688 321.246094 125.363281 321.363281 124.753906 321.539062 C 124.21875 321.699219 123.652344 321.894531 123.058594 322.125 C 122.3125 322.414062 121.527344 322.75 120.695312 323.117188 C 119.488281 323.648438 118.347656 324.148438 117.320312 324.445312 C 114.242188 325.324219 113.023438 323.261719 112.300781 322.03125 C 111.5 320.675781 110.75 319.402344 107.859375 318.929688 C 107.503906 318.875 107.164062 318.847656 106.84375 318.847656 C 104.824219 318.847656 103.441406 319.886719 102.601562 320.835938 C 100.914062 322.746094 100.101562 325.761719 100.714844 327.851562 Z M 106.429688 293.296875 L 86.394531 262.597656 C 84.765625 264.148438 83.316406 265.515625 82.167969 266.59375 L 102.5 297.28125 Z M 96.613281 295.59375 L 78.011719 268.496094 C 77.890625 268.402344 77.78125 268.300781 77.6875 268.183594 L 74.871094 264.484375 L 65.1875 274.015625 C 65.398438 277.371094 66.109375 290.371094 65.128906 298.792969 C 65.027344 299.675781 64.277344 300.324219 63.410156 300.324219 C 63.34375 300.324219 63.277344 300.320312 63.210938 300.308594 C 62.261719 300.199219 61.582031 299.34375 61.691406 298.394531 C 62.765625 289.1875 61.695312 273.617188 61.6875 273.460938 C 61.683594 273.425781 61.6875 273.394531 61.6875 273.363281 C 61.6875 273.34375 61.679688 273.328125 61.679688 273.3125 L 62.992188 195.980469 L 62.996094 195.738281 C 60.851562 196.558594 58.34375 197.1875 56.21875 197.636719 C 53.667969 198.171875 51.667969 198.445312 51.492188 198.464844 C 51.414062 198.476562 51.335938 198.480469 51.261719 198.480469 C 50.40625 198.480469 49.664062 197.851562 49.546875 196.984375 C 49.421875 196.039062 50.085938 195.167969 51.03125 195.042969 C 51.085938 195.035156 54.242188 194.601562 57.597656 193.773438 C 59.753906 193.246094 61.992188 192.550781 63.546875 191.699219 C 63.585938 191.679688 63.625 191.660156 63.664062 191.636719 C 63.976562 191.457031 64.324219 191.390625 64.660156 191.417969 C 73.183594 187.515625 85.445312 181.621094 87.128906 177.890625 C 87.585938 176.878906 87.617188 176.238281 87.449219 176.054688 C 87.414062 176.019531 87.371094 175.988281 87.328125 175.957031 C 86.53125 175.410156 83.601562 175.367188 79.832031 176.714844 C 79.085938 176.980469 78.179688 177.074219 77.171875 177.046875 C 75.886719 177.011719 74.433594 176.765625 72.902344 176.386719 C 72.628906 176.316406 72.351562 176.242188 72.074219 176.167969 C 72.035156 176.171875 71.992188 176.183594 71.949219 176.1875 C 71.796875 176.378906 71.597656 176.578125 71.371094 176.773438 C 71.023438 177.066406 70.582031 177.34375 70.019531 177.582031 C 69.167969 177.941406 68.054688 178.207031 66.566406 178.25 C 65.621094 178.738281 63.320312 179.820312 60.816406 180.164062 C 60.117188 180.261719 59.402344 180.300781 58.695312 180.253906 C 58.378906 180.234375 58.066406 180.195312 57.753906 180.136719 C 57.695312 180.128906 57.636719 180.121094 57.578125 180.109375 C 55.867188 179.75 53.242188 178.089844 50.738281 176.25 C 49.050781 175.011719 47.417969 173.695312 46.148438 172.636719 C 45.152344 171.804688 44.375 171.125 43.988281 170.785156 C 43.269531 170.152344 43.203125 169.058594 43.835938 168.347656 C 44.464844 167.628906 45.558594 167.558594 46.277344 168.195312 C 46.789062 168.648438 47.371094 169.144531 47.984375 169.660156 C 51.042969 172.230469 55.082031 175.328125 57.355469 176.386719 C 57.511719 176.457031 57.65625 176.519531 57.792969 176.570312 C 57.976562 176.640625 58.144531 176.695312 58.292969 176.726562 C 58.582031 176.789062 58.886719 176.816406 59.207031 176.824219 C 59.761719 176.832031 60.351562 176.757812 60.9375 176.636719 C 62.148438 176.390625 63.339844 175.941406 64.226562 175.542969 C 64.097656 174.808594 63.929688 174.121094 63.730469 173.464844 C 63.6875 173.332031 63.648438 173.191406 63.605469 173.0625 C 63.605469 173.054688 63.601562 173.046875 63.597656 173.042969 C 63.410156 172.484375 63.203125 171.953125 62.96875 171.449219 C 62.847656 171.175781 62.714844 170.914062 62.582031 170.664062 C 62.449219 170.40625 62.308594 170.160156 62.164062 169.921875 C 61.707031 169.15625 61.207031 168.46875 60.683594 167.851562 C 59.75 166.75 58.75 165.867188 57.804688 165.183594 C 57.414062 164.898438 57.035156 164.648438 56.675781 164.429688 C 55.0625 163.4375 53.835938 163.046875 53.800781 163.035156 C 52.886719 162.761719 52.367188 161.796875 52.644531 160.882812 C 52.921875 159.96875 53.886719 159.453125 54.800781 159.730469 C 55.140625 159.832031 60.9375 161.660156 64.734375 167.449219 C 64.96875 167.808594 65.195312 168.1875 65.414062 168.582031 C 65.691406 169.074219 65.953125 169.589844 66.191406 170.132812 C 66.234375 170.226562 66.273438 170.328125 66.3125 170.421875 C 66.496094 170.847656 66.667969 171.285156 66.820312 171.738281 C 66.917969 172.023438 67.007812 172.3125 67.09375 172.609375 C 67.285156 173.265625 67.449219 173.957031 67.585938 174.683594 C 67.585938 174.6875 67.585938 174.691406 67.585938 174.699219 C 67.597656 174.695312 67.609375 174.695312 67.617188 174.691406 C 68.683594 174.523438 69.089844 174.203125 69.214844 174.074219 C 69.230469 173.871094 69.25 173.660156 69.261719 173.4375 C 69.261719 173.417969 69.261719 173.398438 69.265625 173.378906 C 69.296875 172.820312 69.316406 172.214844 69.316406 171.609375 C 69.316406 171.476562 69.316406 171.34375 69.316406 171.207031 C 69.316406 171.082031 69.3125 170.964844 69.308594 170.839844 C 69.292969 170.210938 69.257812 169.601562 69.191406 169.050781 C 69.105469 168.347656 68.96875 167.753906 68.777344 167.367188 C 68.769531 167.351562 68.761719 167.332031 68.753906 167.316406 C 68.308594 166.488281 66.765625 164.4375 64.984375 162.179688 C 63.453125 160.234375 61.75 158.136719 60.410156 156.519531 C 59.800781 155.785156 59.902344 154.695312 60.636719 154.085938 C 61.371094 153.476562 62.460938 153.578125 63.074219 154.3125 C 63.832031 155.230469 70.542969 163.34375 71.800781 165.675781 C 71.902344 165.863281 71.992188 166.074219 72.074219 166.292969 C 72.269531 166.796875 72.414062 167.363281 72.519531 167.964844 C 72.617188 168.53125 72.683594 169.121094 72.726562 169.714844 C 72.792969 170.671875 72.792969 171.621094 72.769531 172.441406 C 74.625 171.796875 76.460938 170.410156 77.5 169.480469 C 77.472656 169.175781 77.429688 168.789062 77.359375 168.332031 C 77.277344 167.835938 77.167969 167.257812 77.007812 166.632812 C 76.957031 166.425781 76.898438 166.214844 76.835938 166.003906 C 76.738281 165.667969 76.628906 165.328125 76.503906 164.972656 C 76.273438 164.335938 75.996094 163.679688 75.65625 163.023438 C 75.273438 162.28125 74.515625 161.40625 73.664062 160.5625 C 72.339844 159.253906 70.78125 158.023438 70.027344 157.476562 C 69.257812 156.914062 69.085938 155.832031 69.648438 155.0625 C 70.210938 154.289062 71.292969 154.121094 72.066406 154.679688 C 72.589844 155.0625 77.210938 158.476562 78.734375 161.441406 C 79.191406 162.328125 79.550781 163.207031 79.84375 164.050781 C 80.042969 164.628906 80.207031 165.183594 80.34375 165.710938 C 80.5 166.320312 80.625 166.894531 80.714844 167.40625 C 80.773438 167.746094 80.816406 168.058594 80.855469 168.347656 C 81.289062 168.242188 81.519531 168.089844 81.585938 167.972656 C 81.566406 167.710938 81.519531 167.457031 81.488281 167.203125 C 81.410156 166.617188 81.308594 166.046875 81.179688 165.492188 C 81.046875 164.917969 80.886719 164.359375 80.699219 163.824219 C 78.628906 157.847656 73.523438 153.984375 69.179688 151.683594 C 66.347656 150.183594 63.070312 149.886719 59.953125 150.84375 C 52.652344 153.082031 43.5625 155.875 41.46875 167.066406 C 41.21875 168.402344 40.832031 170.34375 40.34375 172.808594 C 23.558594 257.007812 21.765625 309.136719 35.011719 327.746094 C 37.515625 331.257812 40.707031 333.039062 44.777344 333.179688 C 44.957031 333.183594 45.140625 333.1875 45.320312 333.1875 C 63.644531 333.1875 91.460938 301.632812 96.613281 295.59375 Z M 83.925781 170.535156 C 83.011719 171.417969 81.679688 171.878906 79.960938 171.917969 C 79.488281 172.347656 78.765625 172.96875 77.867188 173.605469 C 78.167969 173.582031 78.445312 173.539062 78.671875 173.457031 C 79.726562 173.078125 84.074219 171.652344 87.347656 172.335938 C 94.933594 170.070312 101.894531 167.828125 105.628906 166.601562 L 104.367188 162.03125 C 100.402344 162.800781 92.835938 164.34375 84.863281 166.335938 C 84.941406 166.851562 85.015625 167.375 85.054688 167.917969 C 85.058594 167.957031 85.058594 167.996094 85.058594 168.03125 C 85.058594 168.261719 85.015625 169.488281 83.925781 170.535156 Z M 106.058594 155.144531 L 106.351562 156.203125 L 106.8125 157.871094 L 106.863281 158.066406 L 109.832031 168.824219 L 110.457031 171.097656 L 112.039062 170.664062 L 111.976562 170.449219 L 111.496094 168.707031 L 110.304688 164.390625 L 109.410156 161.136719 L 108.398438 157.472656 L 107.941406 155.804688 L 107.640625 154.710938 Z M 111.753906 156.625 L 112.703125 160.074219 L 123.085938 156.820312 L 122.0625 154.03125 Z M 120.359375 149.402344 L 119.820312 147.9375 C 119.789062 147.839844 119.761719 147.746094 119.746094 147.644531 C 119.570312 146.664062 119.117188 143.339844 120.738281 141.746094 C 121.453125 141.042969 122.433594 140.769531 123.5 140.976562 C 125.242188 141.316406 126.6875 143.324219 128.742188 147.492188 C 129.148438 147.265625 129.5625 147.039062 129.992188 146.820312 C 130.09375 145.699219 130.195312 144.542969 130.289062 143.378906 C 130.332031 142.835938 130.375 142.296875 130.417969 141.761719 C 130.441406 141.449219 130.5625 141.15625 130.738281 140.902344 C 130.863281 140.730469 131.011719 140.570312 131.195312 140.449219 C 131.351562 140.347656 131.707031 140.128906 132.171875 139.914062 C 133.25 139.417969 134.941406 138.929688 136.257812 139.90625 C 136.265625 139.914062 136.277344 139.929688 136.285156 139.9375 C 136.589844 140.175781 136.867188 140.515625 137.109375 140.933594 C 137.402344 140.230469 137.808594 139.804688 138.210938 139.542969 C 138.601562 139.285156 138.988281 139.195312 139.265625 139.160156 C 139.566406 139.125 139.84375 139.164062 140.121094 139.226562 C 141.429688 139.523438 142.433594 140.734375 142.855469 141.324219 C 143.21875 141.847656 143.269531 142.519531 142.988281 143.085938 C 142.75 143.566406 142.542969 144.445312 142.367188 145.613281 C 143.054688 145.519531 143.753906 145.371094 144.472656 145.117188 C 145.488281 144.753906 146.261719 142.777344 146.355469 140.304688 C 146.488281 136.867188 145.300781 132.648438 142.859375 130.792969 C 142.558594 130.566406 142.242188 130.367188 141.90625 130.214844 C 141.710938 130.128906 141.5 130.066406 141.296875 130.003906 C 140.757812 129.832031 140.183594 129.730469 139.582031 129.6875 C 136.140625 129.449219 131.824219 131.09375 128.808594 132.589844 C 128.238281 132.875 127.714844 133.152344 127.257812 133.40625 C 126.8125 133.65625 126.421875 133.886719 126.105469 134.082031 C 125.984375 134.160156 125.847656 134.207031 125.714844 134.25 C 125.5 134.320312 125.277344 134.363281 125.050781 134.34375 C 124.609375 134.3125 124.089844 134.292969 123.53125 134.292969 C 121.167969 134.292969 118.0625 134.636719 116.65625 135.695312 C 114.296875 137.472656 112.472656 142.054688 114.863281 145.464844 C 116.339844 147.574219 118.414062 148.808594 120.359375 149.402344 Z M 125.238281 126.328125 C 125.703125 126.1875 126.207031 126.246094 126.621094 126.492188 C 127.039062 126.738281 127.335938 127.144531 127.433594 127.621094 C 127.550781 128.167969 127.683594 128.703125 127.816406 129.234375 C 131.136719 127.648438 136.203125 125.75 140.589844 126.320312 C 141.585938 122.824219 142.425781 119.195312 142.847656 115.328125 C 143.214844 111.980469 143.84375 108.933594 144.636719 106.167969 C 144.421875 106.113281 144.21875 106.082031 144 106.023438 C 142.289062 108.191406 138.953125 110.761719 134.304688 110.761719 C 133.234375 110.761719 132.09375 110.628906 130.886719 110.316406 C 123.210938 108.351562 122.136719 103.300781 122.640625 100.90625 C 122.839844 99.96875 123.757812 99.375 124.691406 99.570312 C 125.1875 99.675781 125.585938 99.988281 125.824219 100.394531 C 126.03125 100.75 126.121094 101.179688 126.027344 101.621094 C 125.96875 101.972656 125.566406 105.386719 131.746094 106.96875 C 138.496094 108.699219 141.753906 103.214844 141.785156 103.160156 C 142.1875 102.460938 143.019531 102.132812 143.789062 102.371094 C 144.445312 102.570312 145.078125 102.738281 145.691406 102.878906 C 146.28125 103.011719 146.855469 103.121094 147.410156 103.203125 C 148.035156 103.292969 148.632812 103.34375 149.207031 103.363281 C 151.640625 103.457031 153.65625 102.949219 155.222656 101.808594 C 158.960938 99.089844 159.085938 93.667969 159.085938 93.613281 C 159.09375 92.871094 159.582031 92.214844 160.289062 91.992188 C 161.820312 91.503906 162.878906 90.621094 163.519531 89.289062 C 164 88.289062 164.210938 87.105469 164.253906 85.878906 C 164.277344 85.265625 164.261719 84.636719 164.207031 84.019531 C 164.15625 83.394531 164.070312 82.777344 163.964844 82.1875 C 163.710938 80.746094 163.351562 79.484375 163.066406 78.6875 C 163.035156 78.59375 163 78.496094 162.972656 78.417969 C 162.628906 77.527344 163.078125 76.527344 163.96875 76.1875 C 164.863281 75.84375 165.863281 76.292969 166.203125 77.183594 C 166.257812 77.324219 166.8125 78.8125 167.234375 80.886719 C 169.289062 80.152344 171.492188 79.535156 173.796875 79.089844 C 173.46875 78.660156 173.167969 78.207031 172.914062 77.714844 C 170.96875 73.921875 172.335938 69.9375 172.394531 69.769531 C 172.710938 68.867188 173.699219 68.394531 174.601562 68.710938 C 175.496094 69.027344 175.972656 70.007812 175.660156 70.90625 C 175.65625 70.914062 175.628906 71.011719 175.585938 71.167969 C 175.394531 71.917969 174.960938 74.148438 176.007812 76.167969 C 176.484375 77.082031 177.230469 77.855469 178.214844 78.492188 C 179.003906 79 179.941406 79.421875 181.046875 79.746094 C 181.277344 79.8125 181.484375 79.9375 181.664062 80.085938 C 181.914062 80.292969 182.109375 80.5625 182.210938 80.882812 C 182.238281 80.957031 182.351562 81.308594 182.570312 81.832031 C 183.726562 84.617188 187.78125 92.308594 196.324219 89.664062 C 196.789062 89.523438 197.289062 89.582031 197.707031 89.824219 C 198.128906 90.066406 198.421875 90.476562 198.523438 90.949219 C 198.539062 91.003906 199.964844 97.132812 205.246094 99.410156 C 206.148438 99.796875 207.117188 100.054688 208.148438 100.1875 C 208.882812 100.28125 209.652344 100.308594 210.453125 100.273438 C 211.027344 100.246094 211.613281 100.195312 212.21875 100.101562 C 212.3125 100.089844 212.402344 100.070312 212.488281 100.054688 C 213.050781 99.960938 213.621094 99.839844 214.207031 99.6875 C 216.753906 99.03125 219.550781 97.839844 222.585938 96.117188 C 222.890625 95.945312 223.195312 95.773438 223.503906 95.589844 C 224.328125 95.101562 225.386719 95.375 225.875 96.195312 C 226.363281 97.015625 226.09375 98.074219 225.273438 98.5625 C 221.507812 100.796875 218.015625 102.300781 214.804688 103.089844 C 214.765625 103.101562 214.730469 103.105469 214.695312 103.113281 C 214.566406 103.144531 214.441406 103.167969 214.3125 103.199219 C 214.097656 103.558594 213.835938 104.011719 213.550781 104.546875 C 213.257812 105.089844 212.945312 105.710938 212.632812 106.398438 C 211.160156 109.628906 209.675781 114.296875 210.609375 118.734375 C 210.675781 119.046875 210.65625 119.367188 210.546875 119.667969 C 210.53125 119.722656 208.566406 125.617188 211.328125 127.5625 C 212.867188 128.648438 214.214844 129.003906 215.453125 128.652344 C 217.496094 128.078125 218.949219 125.597656 219.339844 124.691406 C 219.386719 124.578125 219.449219 124.472656 219.519531 124.375 C 219.734375 124.070312 220.042969 123.839844 220.40625 123.726562 C 220.882812 123.570312 221.402344 123.632812 221.832031 123.890625 C 221.867188 123.914062 224.011719 125.164062 226.257812 125.625 C 226.925781 125.761719 227.597656 125.824219 228.230469 125.765625 C 228.980469 125.703125 229.667969 125.472656 230.207031 124.976562 C 230.265625 124.929688 230.324219 124.886719 230.382812 124.847656 C 231.082031 124.347656 232.054688 124.425781 232.65625 125.070312 C 233.304688 125.769531 233.261719 126.867188 232.5625 127.511719 C 231.542969 128.457031 230.351562 128.945312 229.121094 129.136719 C 229.488281 132.085938 228.792969 135.070312 227.0625 137.660156 C 225.175781 140.484375 222.332031 142.390625 219.402344 142.875 C 217.6875 149.925781 214.332031 156.222656 210.023438 161.632812 C 218.121094 164.167969 223.804688 155.121094 224.042969 154.726562 C 224.34375 154.238281 224.875 153.929688 225.453125 153.90625 C 230.660156 153.710938 234.5 152.234375 236.863281 149.511719 C 237.351562 148.953125 238.132812 148.761719 238.824219 149.042969 C 239.917969 149.484375 241.054688 149.910156 242.300781 150.328125 C 250.535156 153.140625 256.328125 143.894531 256.570312 143.5 C 256.875 143.007812 257.402344 142.699219 257.980469 142.675781 C 263.507812 142.472656 267.484375 140.828125 269.804688 137.789062 C 273.5 132.953125 271.917969 125.980469 271.902344 125.910156 C 271.726562 125.167969 272.0625 124.390625 272.726562 124.011719 C 280.078125 119.8125 273.34375 103.972656 273.273438 103.8125 C 273.070312 103.351562 273.078125 102.832031 273.289062 102.378906 C 276.011719 96.578125 276.421875 91.8125 274.507812 88.222656 C 271.640625 82.84375 264.472656 81.671875 264.402344 81.660156 C 263.511719 81.523438 262.875 80.722656 262.941406 79.824219 C 264.3125 61.308594 253.757812 60.082031 253.308594 60.039062 C 252.8125 59.992188 252.355469 59.730469 252.0625 59.328125 C 251.773438 58.925781 251.660156 58.414062 251.773438 57.933594 C 251.796875 57.820312 254.242188 46.527344 246.886719 39.179688 C 239.925781 32.222656 231.476562 39.003906 231.121094 39.292969 C 230.671875 39.660156 230.066406 39.78125 229.511719 39.609375 C 228.957031 39.433594 228.523438 38.996094 228.363281 38.4375 C 228.324219 38.292969 223.925781 23.738281 212.394531 22.363281 C 200.589844 20.953125 192.6875 29.839844 192.609375 29.929688 C 192.230469 30.359375 191.667969 30.578125 191.097656 30.507812 C 190.53125 30.441406 190.03125 30.09375 189.769531 29.585938 C 189.625 29.3125 185.878906 22.605469 173.445312 22.375 C 173.359375 22.375 173.273438 22.375 173.1875 22.375 C 161.464844 22.375 160.050781 37.453125 159.996094 38.097656 C 159.925781 38.929688 159.269531 39.597656 158.4375 39.675781 L 157.453125 39.773438 C 156.914062 39.820312 156.386719 39.621094 156.023438 39.226562 C 154.132812 37.195312 149.660156 33.765625 140.914062 33.605469 C 140.828125 33.605469 140.742188 33.601562 140.65625 33.601562 C 128.898438 33.601562 127.519531 48.679688 127.46875 49.324219 C 127.402344 50.160156 126.742188 50.828125 125.910156 50.90625 C 117.605469 51.699219 111.828125 54.386719 108.742188 58.902344 C 104.664062 64.855469 106.636719 72.058594 106.65625 72.128906 C 106.84375 72.785156 106.625 73.492188 106.101562 73.929688 C 93.496094 84.429688 101.722656 96.292969 102.078125 96.789062 C 102.457031 97.324219 102.507812 98.027344 102.203125 98.605469 C 99.515625 103.695312 99.007812 107.980469 100.699219 111.347656 C 103.742188 117.402344 112.878906 118.894531 112.972656 118.910156 C 113.808594 119.039062 114.429688 119.761719 114.433594 120.613281 C 114.4375 123.074219 115.105469 124.753906 116.464844 125.757812 C 119.011719 127.636719 123.660156 126.808594 125.238281 126.328125 Z M 216.300781 140.90625 L 216.59375 139.546875 L 217.984375 139.539062 C 220.21875 139.523438 222.652344 138.035156 224.183594 135.738281 C 225.554688 133.699219 226.027344 131.316406 225.597656 129 C 224.0625 128.695312 222.652344 128.148438 221.636719 127.679688 C 220.683594 129.175781 218.960938 131.246094 216.417969 131.976562 C 215.789062 132.152344 215.15625 132.246094 214.507812 132.246094 C 212.820312 132.246094 211.085938 131.625 209.335938 130.386719 C 205.015625 127.34375 206.589844 120.816406 207.132812 118.988281 C 206.078125 113.144531 208.265625 107.304688 210.058594 103.738281 C 209.96875 103.738281 209.871094 103.75 209.78125 103.75 C 207.636719 103.75 205.65625 103.355469 203.839844 102.566406 C 198.863281 100.402344 196.582031 95.878906 195.667969 93.394531 C 186.5 95.222656 181.117188 87.820312 179.210938 82.785156 C 178.585938 82.566406 178.007812 82.3125 177.460938 82.039062 C 173.933594 82.429688 170.628906 83.304688 167.699219 84.410156 C 167.808594 86.535156 167.589844 88.816406 166.636719 90.789062 C 165.742188 92.644531 164.335938 94.011719 162.449219 94.859375 C 162.183594 97.0625 161.164062 101.761719 157.257812 104.605469 C 154.820312 106.378906 151.738281 107.09375 148.070312 106.757812 C 147.277344 109.441406 146.648438 112.414062 146.289062 115.707031 C 145.832031 119.851562 144.941406 123.6875 143.890625 127.355469 C 148.207031 129.710938 149.996094 135.683594 149.8125 140.4375 C 149.65625 144.527344 148.097656 147.492188 145.636719 148.375 C 144.363281 148.828125 143.140625 149.039062 141.980469 149.121094 C 141.949219 149.484375 141.921875 149.851562 141.894531 150.230469 C 141.847656 150.871094 141.804688 151.539062 141.769531 152.222656 C 141.734375 152.871094 141.699219 153.535156 141.667969 154.214844 C 141.503906 157.96875 141.433594 162.09375 141.425781 165.714844 C 143.179688 168.457031 145.605469 171.28125 148.878906 174.242188 C 153.363281 178.300781 159.425781 180.394531 166.378906 180.464844 C 166.949219 180.472656 167.527344 180.457031 168.109375 180.4375 C 168.683594 180.414062 169.261719 180.382812 169.84375 180.332031 C 173.210938 180.054688 176.742188 179.347656 180.378906 178.175781 C 185.972656 176.367188 191.835938 173.363281 197.199219 169.316406 C 197.785156 168.875 198.363281 168.414062 198.9375 167.949219 C 199.519531 167.46875 200.101562 166.980469 200.671875 166.476562 C 201.871094 165.414062 203.035156 164.300781 204.152344 163.128906 C 204.574219 162.6875 204.992188 162.238281 205.402344 161.777344 C 205.808594 161.324219 206.207031 160.863281 206.59375 160.390625 C 211.195312 154.863281 214.726562 148.316406 216.300781 140.90625 Z M 171.082031 192.441406 C 171.660156 192.5 172.175781 192.84375 172.445312 193.355469 L 178.789062 205.4375 L 184.671875 194.195312 C 184.878906 193.800781 185.226562 193.503906 185.644531 193.359375 L 197.105469 189.453125 L 197.179688 173.574219 C 192.078125 177.109375 186.652344 179.78125 181.445312 181.464844 C 177.402344 182.769531 173.464844 183.542969 169.707031 183.816406 L 169.375 192.273438 Z M 113.625 163.410156 L 114.597656 166.941406 L 125.542969 163.507812 L 124.28125 160.070312 Z M 137.976562 163.019531 C 137.992188 161.441406 138.019531 159.695312 138.066406 157.890625 C 138.117188 155.90625 138.199219 153.859375 138.316406 151.898438 C 138.359375 151.183594 138.40625 150.488281 138.460938 149.800781 C 138.480469 149.558594 138.496094 149.308594 138.519531 149.070312 C 138.558594 148.59375 138.601562 148.128906 138.648438 147.679688 C 138.660156 147.570312 138.671875 147.457031 138.683594 147.347656 C 138.726562 146.957031 138.769531 146.570312 138.816406 146.203125 C 138.65625 146.65625 138.554688 146.9375 138.554688 146.945312 C 138.507812 147.082031 138.4375 147.203125 138.363281 147.316406 C 138.347656 147.339844 138.335938 147.359375 138.320312 147.382812 C 138.214844 147.527344 138.085938 147.652344 137.945312 147.761719 C 137.613281 148.003906 137.199219 148.132812 136.765625 148.097656 C 136.671875 148.089844 136.578125 148.074219 136.484375 148.046875 C 136.371094 148.019531 136.269531 147.976562 136.164062 147.925781 C 135.8125 147.753906 135.527344 147.464844 135.359375 147.105469 C 135.316406 147.011719 135.28125 146.914062 135.253906 146.8125 C 135.238281 146.753906 135.222656 146.703125 135.210938 146.644531 C 135.144531 146.226562 135.0625 145.796875 134.972656 145.378906 C 134.957031 145.320312 134.945312 145.257812 134.929688 145.195312 C 134.730469 144.316406 134.5 143.515625 134.296875 143.019531 C 134.269531 142.953125 134.242188 142.886719 134.21875 142.832031 C 134.203125 142.835938 134.179688 142.84375 134.164062 142.851562 C 134.050781 142.882812 133.929688 142.921875 133.792969 142.980469 C 133.738281 143.683594 133.683594 144.347656 133.632812 144.976562 C 133.617188 145.160156 133.601562 145.332031 133.585938 145.503906 C 133.535156 146.144531 133.480469 146.746094 133.429688 147.308594 C 133.429688 147.328125 133.425781 147.351562 133.425781 147.375 C 133.367188 148.023438 133.308594 148.625 133.257812 149.175781 C 132.664062 155.214844 132.335938 155.726562 132.136719 156.035156 C 131.792969 156.566406 131.132812 156.902344 130.5 156.855469 C 129.226562 156.761719 128.84375 155.925781 127.230469 152.398438 C 127.222656 152.378906 127.207031 152.351562 127.199219 152.332031 C 127 151.894531 126.75 151.355469 126.472656 150.757812 C 126.238281 150.261719 125.988281 149.734375 125.726562 149.199219 C 124.828125 147.359375 123.800781 145.441406 123.066406 144.644531 C 122.984375 145.210938 123 146.117188 123.128906 146.894531 L 124.179688 149.757812 L 124.308594 150.113281 L 124.78125 151.402344 L 125.296875 152.796875 L 125.382812 153.035156 L 131.449219 169.550781 L 137.96875 167.855469 C 137.96875 167.5 137.96875 167.09375 137.964844 166.660156 C 137.960938 165.625 137.964844 164.386719 137.976562 163.019531 Z M 105.761719 231.78125 C 105.738281 231.707031 105.710938 231.636719 105.683594 231.566406 L 83.128906 252.457031 L 81.234375 254.210938 L 77.570312 257.605469 L 75.460938 259.558594 L 75.570312 259.699219 L 75.722656 259.898438 L 79.277344 264.5625 C 79.324219 264.519531 79.371094 264.476562 79.417969 264.433594 C 79.683594 264.183594 79.957031 263.925781 80.230469 263.667969 C 81.582031 262.394531 83.011719 261.039062 84.46875 259.652344 C 84.890625 259.25 85.320312 258.84375 85.746094 258.4375 C 86.167969 258.035156 86.589844 257.628906 87.019531 257.222656 C 95.53125 249.078125 104.28125 240.46875 105.175781 238.875 C 106.78125 236.027344 106.382812 233.449219 105.761719 231.78125 Z M 145.625 202.914062 L 152.472656 191.601562 C 152.816406 191.03125 153.453125 190.699219 154.121094 190.773438 L 165.925781 191.933594 L 166.242188 183.925781 C 158.484375 183.824219 151.664062 181.421875 146.558594 176.808594 C 144.226562 174.699219 142.296875 172.636719 140.695312 170.609375 C 140.535156 170.722656 140.347656 170.808594 140.148438 170.863281 L 130.800781 173.292969 C 130.65625 173.332031 130.507812 173.347656 130.363281 173.347656 C 129.65625 173.347656 128.996094 172.910156 128.742188 172.214844 L 126.734375 166.757812 L 115.519531 170.277344 L 115.832031 171.410156 C 116.085938 172.332031 115.546875 173.28125 114.621094 173.535156 L 109.707031 174.886719 C 109.558594 174.929688 109.40625 174.953125 109.25 174.953125 C 108.953125 174.953125 108.65625 174.875 108.394531 174.726562 C 107.996094 174.5 107.703125 174.121094 107.582031 173.683594 L 106.550781 169.941406 C 103.15625 171.054688 97.3125 172.945312 90.738281 174.9375 C 91.117188 175.945312 91.167969 177.359375 90.28125 179.316406 C 88.230469 183.855469 78.148438 189.019531 66.476562 194.386719 L 65.210938 269.140625 L 72.757812 261.714844 L 71.757812 260.40625 C 71.21875 259.695312 71.304688 258.695312 71.960938 258.089844 L 104.953125 227.527344 C 105.1875 227.308594 105.476562 227.167969 105.789062 227.105469 C 118.730469 215.59375 132.367188 206.015625 145.625 202.914062 Z M 200.554688 191.929688 L 198.820312 192.519531 L 197.089844 193.113281 L 187.417969 196.410156 L 180.324219 209.964844 C 180.023438 210.535156 179.433594 210.890625 178.792969 210.894531 C 178.789062 210.894531 178.789062 210.894531 178.789062 210.894531 C 178.148438 210.894531 177.558594 210.535156 177.257812 209.96875 L 169.8125 195.789062 L 169.234375 195.734375 L 167.511719 195.5625 L 165.785156 195.394531 L 154.867188 194.320312 L 149.195312 203.695312 C 151.808594 204.867188 157.652344 207.273438 165.242188 209.09375 C 165.804688 209.230469 166.378906 209.359375 166.957031 209.488281 C 167.523438 209.613281 168.09375 209.734375 168.675781 209.851562 C 177.03125 211.515625 187.023438 212.269531 197.011719 210.089844 C 197.589844 209.964844 198.167969 209.828125 198.742188 209.679688 C 199.320312 209.535156 199.898438 209.375 200.476562 209.210938 C 206.1875 207.554688 211.835938 204.863281 217.109375 200.75 L 205.625 190.203125 Z M 277.15625 221.207031 C 277.167969 222.652344 277.59375 224.433594 279.246094 225.796875 C 281.304688 227.496094 288.921875 231.855469 296.445312 235.992188 C 296.953125 236.269531 297.460938 236.546875 297.964844 236.824219 C 298.296875 237.007812 298.628906 237.1875 298.957031 237.371094 C 299.136719 237.464844 299.3125 237.558594 299.488281 237.65625 C 299.832031 237.84375 300.179688 238.03125 300.523438 238.21875 C 301.054688 238.507812 301.578125 238.789062 302.09375 239.066406 C 303.167969 239.652344 304.210938 240.210938 305.195312 240.738281 C 305.722656 241.019531 306.230469 241.289062 306.722656 241.550781 C 306.777344 241.582031 306.835938 241.613281 306.894531 241.640625 L 307.613281 240.277344 L 307.765625 239.984375 L 308.417969 238.746094 L 308.992188 237.660156 L 308.851562 237.589844 L 308.371094 237.328125 L 302.449219 234.171875 L 301.179688 233.492188 L 298.597656 232.117188 L 277.167969 220.679688 C 277.160156 220.847656 277.15625 221.023438 277.15625 221.207031 Z M 358.597656 290.507812 C 352.976562 298.261719 343.40625 303.046875 331.648438 303.976562 C 325.4375 304.464844 319.335938 304.6875 313.386719 304.6875 C 294.210938 304.6875 276.601562 302.386719 261.792969 299.394531 C 260.894531 320.550781 259.179688 345.742188 258.683594 352.824219 L 277.414062 352.824219 C 278.367188 352.824219 279.140625 353.601562 279.140625 354.554688 C 279.140625 355.511719 278.367188 356.28125 277.414062 356.28125 L 256.824219 356.28125 C 256.820312 356.28125 256.816406 356.28125 256.8125 356.28125 L 67.390625 356.28125 C 66.4375 356.28125 65.664062 355.511719 65.664062 354.554688 C 65.664062 353.601562 66.4375 352.824219 67.390625 352.824219 L 98.347656 352.824219 C 98.320312 352.769531 98.289062 352.71875 98.261719 352.664062 L 96.023438 347.785156 C 95.847656 347.398438 95.71875 346.980469 95.605469 346.550781 L 88.722656 346.550781 C 87.253906 346.550781 85.910156 345.742188 85.03125 344.335938 L 82.1875 339.765625 C 80.960938 337.796875 80.90625 335.09375 82.050781 333.035156 C 82.914062 331.480469 84.308594 330.589844 85.875 330.589844 L 98.023438 330.589844 C 97.769531 329.972656 97.550781 329.375 97.390625 328.820312 C 96.445312 325.585938 97.523438 321.359375 100.007812 318.546875 C 102.203125 316.070312 105.183594 314.996094 108.410156 315.515625 C 112.90625 316.246094 114.394531 318.769531 115.28125 320.277344 C 115.476562 320.609375 115.769531 321.105469 115.910156 321.207031 C 115.914062 321.199219 116.050781 321.210938 116.371094 321.121094 C 117.171875 320.890625 118.203125 320.433594 119.296875 319.953125 C 120.351562 319.488281 121.554688 318.960938 122.820312 318.535156 L 120.507812 283.957031 L 103.46875 301.222656 C 103.101562 301.59375 102.585938 301.785156 102.070312 301.730469 C 101.550781 301.679688 101.082031 301.398438 100.792969 300.964844 L 98.953125 298.1875 C 92.851562 305.34375 65.03125 336.640625 45.289062 336.644531 C 45.078125 336.644531 44.871094 336.640625 44.660156 336.632812 C 39.511719 336.453125 35.316406 334.136719 32.191406 329.746094 C 23.273438 317.21875 20.722656 290.53125 24.613281 250.433594 C 27.71875 218.4375 34.1875 185.988281 36.949219 172.132812 C 37.4375 169.6875 37.820312 167.757812 38.070312 166.433594 C 40.546875 153.183594 51.613281 149.785156 58.9375 147.535156 C 62.9375 146.308594 67.152344 146.695312 70.796875 148.628906 C 74.949219 150.828125 81.503906 155.375 84.046875 162.964844 C 91.933594 160.988281 99.371094 159.472656 103.445312 158.683594 L 102.261719 154.398438 C 102.011719 153.476562 102.550781 152.523438 103.472656 152.269531 L 108.386719 150.917969 C 108.828125 150.796875 109.300781 150.855469 109.699219 151.082031 C 110.097656 151.308594 110.390625 151.683594 110.515625 152.125 L 110.835938 153.292969 L 117.019531 151.734375 C 115.125 150.765625 113.359375 149.34375 112.03125 147.449219 C 108.3125 142.140625 111.171875 135.5 114.574219 132.933594 C 117.449219 130.769531 122.757812 130.777344 124.667969 130.859375 C 124.597656 130.59375 124.515625 130.328125 124.449219 130.054688 C 122 130.507812 117.570312 130.867188 114.417969 128.546875 C 112.453125 127.101562 111.320312 124.914062 111.042969 122.039062 C 107.957031 121.300781 100.65625 118.96875 97.605469 112.894531 C 95.496094 108.695312 95.859375 103.652344 98.683594 97.894531 C 96.703125 94.542969 91.074219 82.675781 103.078125 71.96875 C 102.589844 69.386719 101.894531 62.777344 105.882812 56.949219 C 109.394531 51.820312 115.546875 48.6875 124.183594 47.617188 C 125.171875 40.839844 129.554688 30.144531 140.65625 30.144531 C 140.761719 30.144531 140.871094 30.148438 140.980469 30.148438 C 149.0625 30.296875 154.070312 33 156.890625 35.3125 C 158.167969 28.539062 162.652344 18.914062 173.183594 18.914062 C 173.292969 18.914062 173.398438 18.917969 173.507812 18.917969 C 184.011719 19.113281 189.3125 23.535156 191.527344 26.140625 C 194.644531 23.3125 202.304688 17.679688 212.800781 18.929688 C 223.703125 20.226562 229.03125 30.585938 230.894531 35.242188 C 235.386719 32.53125 243.058594 30.460938 249.332031 36.734375 C 256.292969 43.6875 255.925781 53.175781 255.429688 57.011719 C 259.152344 58.191406 267.175781 62.597656 266.480469 78.589844 C 269.203125 79.316406 274.789062 81.390625 277.5625 86.597656 C 279.929688 91.042969 279.652344 96.605469 276.746094 103.144531 C 278.113281 106.550781 283.136719 120.589844 275.488281 126.328125 C 275.863281 128.902344 276.25 135.027344 272.574219 139.863281 C 269.734375 143.601562 265.171875 145.691406 258.996094 146.085938 C 257.179688 148.628906 250.480469 156.765625 241.1875 153.605469 C 240.285156 153.300781 239.4375 152.992188 238.621094 152.679688 C 235.765625 155.421875 231.6875 156.980469 226.46875 157.316406 C 224.902344 159.519531 219.96875 165.558594 212.910156 165.558594 C 211.566406 165.558594 210.148438 165.339844 208.65625 164.832031 C 208.296875 164.710938 207.949219 164.585938 207.609375 164.46875 C 205.449219 166.84375 203.109375 169.023438 200.652344 170.988281 L 200.570312 188.273438 L 205.480469 186.597656 C 206.078125 186.394531 206.742188 186.53125 207.207031 186.960938 L 220.5 199.164062 C 238.886719 200.984375 258.917969 208.605469 275.371094 216.421875 C 275.824219 216.273438 276.3125 216.304688 276.734375 216.527344 L 312.136719 235.421875 C 312.976562 235.867188 313.296875 236.910156 312.855469 237.75 L 312.4375 238.546875 C 323.5 243.800781 360.683594 262.101562 363.050781 271.820312 C 364.460938 277.609375 362.753906 284.769531 358.597656 290.507812 Z M 241.59375 108.765625 C 243.558594 109.804688 246.648438 110.804688 250.035156 110.804688 C 250.6875 110.804688 251.355469 110.761719 252.027344 110.679688 C 254.402344 113.191406 258.914062 116.242188 264.277344 116.242188 C 266.828125 116.242188 269.570312 115.550781 272.363281 113.785156 C 273.171875 113.277344 273.410156 112.207031 272.902344 111.398438 C 272.390625 110.59375 271.320312 110.351562 270.515625 110.863281 C 264.234375 114.832031 258.738281 111.792969 256.019531 109.621094 C 258.246094 108.671875 260.402344 107.082031 262.253906 104.578125 C 262.816406 103.808594 262.65625 102.726562 261.886719 102.160156 C 261.117188 101.59375 260.035156 101.757812 259.46875 102.523438 C 253.308594 110.863281 243.621094 105.925781 243.214844 105.710938 C 242.367188 105.265625 241.320312 105.585938 240.875 106.429688 C 240.429688 107.269531 240.75 108.320312 241.59375 108.765625 Z M 181.472656 146.394531 C 181.265625 146.621094 176.890625 151.488281 176.28125 156.992188 C 173.746094 157.628906 168.296875 156.742188 163.136719 154.164062 C 158.226562 151.710938 153.558594 153.820312 151.480469 155.074219 C 150.820312 155.472656 150.414062 155.785156 150.351562 155.835938 C 150.167969 155.980469 150.023438 156.152344 149.914062 156.347656 C 149.585938 156.933594 149.625 157.6875 150.0625 158.25 C 150.066406 158.253906 150.066406 158.261719 150.070312 158.261719 C 150.5 158.804688 151.1875 159.015625 151.816406 158.867188 C 152.058594 158.8125 152.292969 158.707031 152.5 158.542969 C 152.515625 158.53125 153.042969 158.128906 153.894531 157.683594 C 154.632812 157.296875 155.621094 156.878906 156.761719 156.65625 C 158.214844 156.371094 159.898438 156.410156 161.589844 157.253906 C 161.988281 157.453125 162.398438 157.640625 162.8125 157.828125 C 165.316406 158.953125 168.121094 159.847656 170.777344 160.308594 C 172.015625 160.527344 173.222656 160.65625 174.34375 160.65625 C 175.09375 160.65625 175.800781 160.59375 176.460938 160.484375 C 176.515625 160.707031 176.566406 160.929688 176.636719 161.148438 C 176.742188 161.484375 176.867188 161.8125 177.011719 162.136719 C 177.101562 162.339844 177.195312 162.546875 177.296875 162.746094 C 177.574219 163.261719 177.914062 163.753906 178.289062 164.226562 C 178.777344 164.832031 179.335938 165.40625 179.992188 165.9375 C 180.3125 166.199219 180.699219 166.324219 181.082031 166.324219 C 181.585938 166.324219 182.085938 166.105469 182.425781 165.6875 C 183.027344 164.949219 182.917969 163.859375 182.175781 163.257812 C 182.058594 163.160156 181.949219 163.058594 181.839844 162.960938 C 181.488281 162.640625 181.183594 162.316406 180.917969 161.972656 C 180.8125 161.835938 180.714844 161.699219 180.621094 161.558594 C 180.351562 161.144531 180.140625 160.710938 179.988281 160.253906 C 179.957031 160.164062 179.921875 160.074219 179.894531 159.980469 C 179.78125 159.585938 179.710938 159.179688 179.679688 158.753906 C 179.671875 158.675781 179.679688 158.597656 179.675781 158.515625 C 179.480469 153.820312 183.953125 148.808594 184.03125 148.722656 C 184.675781 148.019531 184.625 146.921875 183.917969 146.28125 C 183.210938 145.640625 182.117188 145.6875 181.472656 146.394531 Z M 190.984375 116.859375 C 189.144531 116.859375 187.648438 118.351562 187.648438 120.195312 C 187.648438 122.03125 189.144531 123.527344 190.984375 123.527344 C 192.828125 123.527344 194.320312 122.03125 194.320312 120.195312 C 194.320312 118.351562 192.828125 116.859375 190.984375 116.859375 Z M 155.117188 119.222656 C 155.117188 117.378906 156.609375 115.886719 158.453125 115.886719 C 160.296875 115.886719 161.792969 117.378906 161.792969 119.222656 C 161.792969 121.0625 160.296875 122.554688 158.453125 122.554688 C 156.609375 122.554688 155.117188 121.0625 155.117188 119.222656 " fill-opacity="1" fill-rule="nonzero"/></g></svg>