<svg xmlns="http://www.w3.org/2000/svg" xmlns:xlink="http://www.w3.org/1999/xlink" width="500" zoomAndPan="magnify" viewBox="0 0 375 374.999991" height="500" preserveAspectRatio="xMidYMid meet" version="1.0"><defs><clipPath id="id1"><path d="M 231 62.800781 L 307 62.800781 L 307 199 L 231 199 Z M 231 62.800781 " clip-rule="nonzero"/></clipPath><clipPath id="id2"><path d="M 48.363281 236 L 62 236 L 62 251 L 48.363281 251 Z M 48.363281 236 " clip-rule="nonzero"/></clipPath><clipPath id="id3"><path d="M 300.363281 195.535156 L 326.15625 195.535156 L 326.15625 256 L 300.363281 256 Z M 300.363281 195.535156 " clip-rule="nonzero"/></clipPath><clipPath id="id4"><path d="M 161.0625 276 L 247 276 L 247 312.550781 L 161.0625 312.550781 Z M 161.0625 276 " clip-rule="nonzero"/></clipPath></defs><g clip-path="url(#id1)"><path fill="rgb(92.939758%, 29.019165%, 29.019165%)" d="M 237.617188 198.066406 L 231.226562 196.753906 L 255.113281 80.332031 L 304.019531 62.800781 L 306.21875 68.953125 L 260.769531 85.25 L 237.617188 198.066406 " fill-opacity="1" fill-rule="nonzero"/></g><path fill="rgb(94.898987%, 92.939758%, 84.309387%)" d="M 282.589844 141.742188 L 197.382812 141.742188 L 210.433594 265.476562 L 269.535156 265.476562 L 282.589844 141.742188 " fill-opacity="1" fill-rule="nonzero"/><path fill="rgb(92.939758%, 29.019165%, 29.019165%)" d="M 210.082031 262.140625 L 274.195312 221.300781 L 277.65625 188.457031 L 207.054688 233.433594 L 210.082031 262.140625 " fill-opacity="1" fill-rule="nonzero"/><path fill="rgb(92.939758%, 29.019165%, 29.019165%)" d="M 255.4375 141.742188 L 201.035156 176.394531 L 204.0625 205.101562 L 281.078125 156.042969 L 282.589844 141.742188 L 255.4375 141.742188 " fill-opacity="1" fill-rule="nonzero"/><path fill="rgb(86.669922%, 84.709167%, 76.858521%)" d="M 239.984375 265.476562 L 210.433594 265.476562 L 210.082031 262.140625 L 239.984375 243.089844 L 239.984375 265.476562 M 207.054688 233.433594 L 204.066406 205.101562 L 239.984375 182.21875 L 239.984375 195.058594 C 239.761719 195.0625 239.535156 195.082031 239.3125 195.109375 L 233.820312 195.863281 L 239.585938 212.710938 L 207.054688 233.433594 " fill-opacity="1" fill-rule="nonzero"/><path fill="rgb(84.709167%, 27.449036%, 27.449036%)" d="M 210.082031 262.140625 L 207.054688 233.433594 L 239.585938 212.710938 L 239.984375 213.878906 L 239.984375 214.539062 L 236.96875 214.539062 L 239.984375 237.042969 L 239.984375 243.089844 L 210.082031 262.140625 " fill-opacity="1" fill-rule="nonzero"/><path fill="rgb(86.669922%, 84.709167%, 76.858521%)" d="M 201.035156 176.394531 L 197.382812 141.742188 L 239.984375 141.742188 L 239.984375 151.582031 L 201.035156 176.394531 " fill-opacity="1" fill-rule="nonzero"/><path fill="rgb(84.709167%, 27.449036%, 27.449036%)" d="M 204.066406 205.101562 L 201.035156 176.394531 L 239.984375 151.582031 L 239.984375 182.21875 L 204.0625 205.101562 " fill-opacity="1" fill-rule="nonzero"/><path fill="rgb(90.979004%, 88.62915%, 78.42865%)" d="M 285.121094 126.953125 L 194.851562 126.953125 L 194.851562 138.496094 L 285.121094 138.496094 L 285.121094 126.953125 " fill-opacity="1" fill-rule="nonzero"/><path fill="rgb(94.898987%, 92.939758%, 84.309387%)" d="M 285.121094 126.953125 L 194.851562 126.953125 L 201.371094 117.671875 L 278.59375 117.671875 L 285.121094 126.953125 " fill-opacity="1" fill-rule="nonzero"/><path fill="rgb(94.898987%, 92.939758%, 84.309387%)" d="M 289.277344 146.617188 L 190.695312 146.617188 L 190.695312 136.867188 L 289.277344 136.867188 L 289.277344 146.617188 " fill-opacity="1" fill-rule="nonzero"/><path fill="rgb(90.979004%, 88.62915%, 78.42865%)" d="M 118.089844 289.910156 L 76.683594 223.601562 L 85.636719 217.996094 L 127.042969 284.308594 L 118.089844 289.910156 " fill-opacity="1" fill-rule="nonzero"/><path fill="rgb(92.939758%, 29.019165%, 29.019165%)" d="M 96.488281 235.378906 L 86.917969 220.046875 L 85.730469 238.089844 L 95.304688 253.425781 L 96.488281 235.378906 " fill-opacity="1" fill-rule="nonzero"/><path fill="rgb(92.939758%, 29.019165%, 29.019165%)" d="M 117.300781 268.710938 L 107.726562 253.375 L 106.542969 271.421875 L 116.117188 286.753906 L 117.300781 268.710938 " fill-opacity="1" fill-rule="nonzero"/><path fill="rgb(83.139038%, 80.778503%, 71.759033%)" d="M 95.304688 253.425781 L 96.488281 235.378906 L 95.304688 253.425781 " fill-opacity="1" fill-rule="nonzero"/><path fill="rgb(84.709167%, 27.449036%, 27.449036%)" d="M 95.304688 253.425781 L 85.730469 238.089844 L 86.917969 220.046875 L 96.488281 235.378906 L 95.304688 253.425781 " fill-opacity="1" fill-rule="nonzero"/><path fill="rgb(83.139038%, 80.778503%, 71.759033%)" d="M 116.117188 286.753906 L 117.300781 268.710938 L 116.117188 286.753906 " fill-opacity="1" fill-rule="nonzero"/><path fill="rgb(84.709167%, 27.449036%, 27.449036%)" d="M 116.117188 286.753906 L 106.542969 271.421875 L 107.726562 253.375 L 117.300781 268.710938 L 116.117188 286.753906 " fill-opacity="1" fill-rule="nonzero"/><path fill="rgb(90.979004%, 88.62915%, 78.42865%)" d="M 119.027344 296.105469 L 118.089844 289.910156 L 127.042969 284.308594 L 132.191406 287.859375 L 119.027344 296.105469 " fill-opacity="1" fill-rule="nonzero"/><path fill="rgb(90.979004%, 88.62915%, 78.42865%)" d="M 71.535156 220.046875 L 76.683594 223.601562 L 85.636719 217.996094 L 84.699219 211.804688 L 71.535156 220.046875 " fill-opacity="1" fill-rule="nonzero"/><path fill="rgb(94.898987%, 92.939758%, 84.309387%)" d="M 114.207031 300.761719 L 54.757812 250.046875 L 61.605469 241.996094 L 121.054688 292.710938 L 114.207031 300.761719 " fill-opacity="1" fill-rule="nonzero"/><path fill="rgb(92.939758%, 29.019165%, 29.019165%)" d="M 77.191406 255.289062 L 63.441406 243.5625 L 67.75 261.128906 L 81.496094 272.855469 L 77.191406 255.289062 " fill-opacity="1" fill-rule="nonzero"/><path fill="rgb(92.939758%, 29.019165%, 29.019165%)" d="M 107.070312 280.785156 L 93.324219 269.054688 L 97.628906 286.617188 L 111.378906 298.347656 L 107.070312 280.785156 " fill-opacity="1" fill-rule="nonzero"/><path fill="rgb(90.979004%, 88.62915%, 78.42865%)" d="M 116.964844 306.382812 L 114.207031 300.761719 L 121.054688 292.710938 L 127.035156 294.546875 L 116.964844 306.382812 " fill-opacity="1" fill-rule="nonzero"/><g clip-path="url(#id2)"><path fill="rgb(90.979004%, 88.62915%, 78.42865%)" d="M 48.78125 248.214844 L 54.757812 250.046875 L 61.605469 241.996094 L 58.847656 236.375 L 48.78125 248.214844 " fill-opacity="1" fill-rule="nonzero"/></g><path fill="rgb(86.669922%, 59.21936%, 38.42926%)" d="M 122.6875 259.265625 L 175.550781 259.265625 L 186.339844 182.246094 L 111.898438 182.246094 L 122.6875 259.265625 " fill-opacity="1" fill-rule="nonzero"/><path fill="rgb(94.898987%, 92.939758%, 84.309387%)" d="M 166.386719 224.359375 C 166.386719 233.910156 158.652344 241.652344 149.121094 241.652344 C 139.582031 241.652344 131.847656 233.910156 131.847656 224.359375 C 131.847656 214.808594 139.582031 207.066406 149.121094 207.066406 C 158.652344 207.066406 166.386719 214.808594 166.386719 224.359375 " fill-opacity="1" fill-rule="nonzero"/><path fill="rgb(61.178589%, 42.749023%, 29.40979%)" d="M 149.121094 259.265625 L 122.6875 259.265625 L 112.503906 186.570312 L 149.121094 186.570312 L 149.121094 207.066406 C 139.582031 207.066406 131.847656 214.808594 131.847656 224.359375 C 131.847656 233.910156 139.582031 241.652344 149.121094 241.652344 L 149.121094 259.265625 " fill-opacity="1" fill-rule="nonzero"/><path fill="rgb(66.668701%, 64.709473%, 59.21936%)" d="M 149.121094 241.652344 C 139.582031 241.652344 131.847656 233.910156 131.847656 224.359375 C 131.847656 214.808594 139.582031 207.066406 149.121094 207.066406 L 149.121094 241.652344 " fill-opacity="1" fill-rule="nonzero"/><path fill="rgb(90.979004%, 88.62915%, 78.42865%)" d="M 112.550781 187.855469 L 185.683594 187.855469 L 185.683594 175.722656 L 112.550781 175.722656 L 112.550781 187.855469 " fill-opacity="1" fill-rule="nonzero"/><path fill="rgb(94.898987%, 92.939758%, 84.309387%)" d="M 118.300781 167.816406 L 179.933594 167.816406 L 185.683594 175.722656 L 112.550781 175.722656 L 118.300781 167.816406 " fill-opacity="1" fill-rule="nonzero"/><path fill="rgb(94.898987%, 92.939758%, 84.309387%)" d="M 107.015625 190.894531 L 191.21875 190.894531 L 191.21875 182.246094 L 107.015625 182.246094 L 107.015625 190.894531 " fill-opacity="1" fill-rule="nonzero"/><path fill="rgb(90.979004%, 88.62915%, 78.42865%)" d="M 236.96875 214.539062 L 247.992188 296.78125 L 314.664062 296.78125 L 324.246094 214.539062 L 236.96875 214.539062 " fill-opacity="1" fill-rule="nonzero"/><path fill="rgb(93.728638%, 59.999084%, 14.898682%)" d="M 282.050781 242.265625 L 285.328125 187.828125 L 277.925781 188.84375 C 276.132812 189.085938 274.789062 190.601562 274.757812 192.414062 L 273.753906 251.226562 L 282.050781 242.265625 " fill-opacity="1" fill-rule="nonzero"/><path fill="rgb(93.728638%, 59.999084%, 14.898682%)" d="M 276.40625 257.570312 L 270.515625 180.742188 L 263.519531 181.699219 C 261.558594 181.964844 260.167969 183.75 260.375 185.71875 L 267.523438 253.398438 L 276.40625 257.570312 " fill-opacity="1" fill-rule="nonzero"/><path fill="rgb(93.728638%, 59.999084%, 14.898682%)" d="M 261.085938 242.417969 L 246.007812 199.21875 C 245.035156 196.429688 242.234375 194.710938 239.3125 195.109375 L 233.820312 195.863281 L 254.023438 254.90625 L 259.78125 248.691406 C 261.34375 247.003906 261.84375 244.589844 261.085938 242.417969 " fill-opacity="1" fill-rule="nonzero"/><path fill="rgb(93.728638%, 59.999084%, 14.898682%)" d="M 267.566406 228.84375 L 252.484375 185.644531 C 251.511719 182.855469 248.714844 181.136719 245.789062 181.535156 L 240.300781 182.289062 L 260.5 241.335938 L 266.257812 235.121094 C 267.820312 233.429688 268.320312 231.015625 267.566406 228.84375 " fill-opacity="1" fill-rule="nonzero"/><path fill="rgb(98.81897%, 66.268921%, 18.818665%)" d="M 290.347656 245.511719 L 293.625 191.070312 L 286.222656 192.085938 C 284.429688 192.332031 283.085938 193.847656 283.054688 195.65625 L 282.050781 254.472656 L 290.347656 245.511719 " fill-opacity="1" fill-rule="nonzero"/><path fill="rgb(98.81897%, 66.268921%, 18.818665%)" d="M 267.621094 239.667969 L 249.871094 188.109375 L 257.273438 187.09375 C 259.0625 186.851562 260.761719 187.949219 261.277344 189.679688 L 278.015625 246.066406 L 267.621094 239.667969 " fill-opacity="1" fill-rule="nonzero"/><path fill="rgb(93.728638%, 59.999084%, 14.898682%)" d="M 267.671875 258.855469 L 270.949219 204.417969 L 263.546875 205.429688 C 261.757812 205.675781 260.414062 207.191406 260.382812 209 L 259.375 267.8125 L 267.671875 258.855469 " fill-opacity="1" fill-rule="nonzero"/><path fill="rgb(98.81897%, 66.268921%, 18.818665%)" d="M 277.191406 254.464844 L 280.46875 200.027344 L 273.0625 201.042969 C 271.277344 201.289062 269.929688 202.804688 269.898438 204.613281 L 268.890625 263.425781 L 277.191406 254.464844 " fill-opacity="1" fill-rule="nonzero"/><path fill="rgb(98.81897%, 66.268921%, 18.818665%)" d="M 265.507812 256.578125 L 252.761719 203.554688 L 245.980469 206.691406 C 244.339844 207.449219 243.496094 209.292969 243.992188 211.03125 L 260.1875 267.578125 L 265.507812 256.578125 " fill-opacity="1" fill-rule="nonzero"/><path fill="rgb(93.728638%, 59.999084%, 14.898682%)" d="M 303.441406 243.984375 L 318.792969 191.664062 L 311.351562 190.992188 C 309.550781 190.832031 307.902344 192.007812 307.46875 193.761719 L 293.351562 250.859375 L 303.441406 243.984375 " fill-opacity="1" fill-rule="nonzero"/><path fill="rgb(93.728638%, 59.999084%, 14.898682%)" d="M 294.519531 257.636719 L 305.941406 181.4375 L 298.90625 180.804688 C 296.9375 180.625 295.179688 182.050781 294.941406 184.015625 L 286.796875 251.582031 L 294.519531 257.636719 " fill-opacity="1" fill-rule="nonzero"/><path fill="rgb(93.728638%, 59.999084%, 14.898682%)" d="M 282.976562 239.4375 L 277.929688 193.957031 C 277.601562 191.019531 275.253906 188.71875 272.316406 188.453125 L 266.796875 187.957031 L 273.300781 250.03125 L 280.300781 245.265625 C 282.203125 243.964844 283.230469 241.726562 282.976562 239.4375 " fill-opacity="1" fill-rule="nonzero"/><path fill="rgb(93.728638%, 59.999084%, 14.898682%)" d="M 292.320312 227.65625 L 287.269531 182.179688 C 286.949219 179.242188 284.601562 176.941406 281.660156 176.675781 L 276.140625 176.179688 L 282.644531 238.253906 L 289.644531 233.484375 C 291.542969 232.1875 292.578125 229.945312 292.320312 227.65625 " fill-opacity="1" fill-rule="nonzero"/><g clip-path="url(#id3)"><path fill="rgb(98.81897%, 66.268921%, 18.818665%)" d="M 310.804688 249.003906 L 326.15625 196.683594 L 318.714844 196.011719 C 316.914062 195.851562 315.265625 197.03125 314.832031 198.785156 L 300.714844 255.882812 L 310.804688 249.003906 " fill-opacity="1" fill-rule="nonzero"/></g><path fill="rgb(98.81897%, 66.268921%, 18.818665%)" d="M 289.957031 238.21875 L 284.171875 183.996094 L 291.613281 184.664062 C 293.414062 184.824219 294.824219 186.277344 294.9375 188.082031 L 298.660156 246.785156 L 289.957031 238.21875 " fill-opacity="1" fill-rule="nonzero"/><path fill="rgb(93.728638%, 59.999084%, 14.898682%)" d="M 285.722656 256.933594 L 301.074219 204.613281 L 293.636719 203.941406 C 291.835938 203.78125 290.1875 204.957031 289.75 206.710938 L 275.636719 263.8125 L 285.722656 256.933594 " fill-opacity="1" fill-rule="nonzero"/><path fill="rgb(98.81897%, 66.268921%, 18.818665%)" d="M 295.980469 254.789062 L 311.332031 202.464844 L 303.890625 201.796875 C 302.089844 201.632812 300.441406 202.808594 300.007812 204.566406 L 285.890625 261.664062 L 295.980469 254.789062 " fill-opacity="1" fill-rule="nonzero"/><path fill="rgb(98.81897%, 66.268921%, 18.818665%)" d="M 284.121094 254.230469 L 283.542969 199.699219 L 276.230469 201.234375 C 274.460938 201.605469 273.230469 203.214844 273.324219 205.023438 L 276.480469 263.757812 L 284.121094 254.230469 " fill-opacity="1" fill-rule="nonzero"/><path fill="rgb(94.898987%, 92.939758%, 84.309387%)" d="M 236.96875 214.539062 L 247.992188 296.78125 L 314.664062 296.78125 L 324.246094 214.539062 L 300.941406 241.890625 C 290.269531 254.414062 270.945312 254.414062 260.273438 241.890625 L 236.96875 214.539062 " fill-opacity="1" fill-rule="nonzero"/><path fill="rgb(92.939758%, 29.019165%, 29.019165%)" d="M 296.023438 273.390625 C 296.023438 281.917969 289.121094 288.832031 280.605469 288.832031 C 272.089844 288.832031 265.191406 281.917969 265.191406 273.390625 C 265.191406 264.863281 272.089844 257.953125 280.605469 257.953125 C 289.121094 257.953125 296.023438 264.863281 296.023438 273.390625 " fill-opacity="1" fill-rule="nonzero"/><path fill="rgb(82.749939%, 82.348633%, 82.348633%)" d="M 280.605469 296.78125 L 247.992188 296.78125 L 243.796875 265.476562 L 247.992188 296.78125 L 280.605469 296.78125 " fill-opacity="1" fill-rule="nonzero"/><path fill="rgb(78.819275%, 76.858521%, 69.799805%)" d="M 243.796875 265.476562 L 240.730469 242.617188 L 243.796875 265.476562 " fill-opacity="1" fill-rule="nonzero"/><path fill="rgb(77.249146%, 25.489807%, 25.878906%)" d="M 240.730469 242.617188 L 239.984375 237.042969 L 239.984375 237.039062 L 240.730469 242.617188 " fill-opacity="1" fill-rule="nonzero"/><path fill="rgb(70.588684%, 24.308777%, 24.308777%)" d="M 239.984375 237.042969 L 236.96875 214.539062 L 239.984375 237.039062 L 239.984375 237.042969 " fill-opacity="1" fill-rule="nonzero"/><path fill="rgb(78.819275%, 76.858521%, 69.799805%)" d="M 280.605469 296.78125 L 247.992188 296.78125 L 243.796875 265.476562 L 240.730469 242.617188 L 239.984375 237.039062 L 236.96875 214.539062 L 260.273438 241.890625 C 265.609375 248.152344 273.109375 251.28125 280.605469 251.28125 L 280.605469 257.953125 C 272.089844 257.953125 265.191406 264.863281 265.191406 273.390625 C 265.191406 281.917969 272.089844 288.832031 280.605469 288.832031 L 280.605469 296.78125 " fill-opacity="1" fill-rule="nonzero"/><path fill="rgb(77.249146%, 25.489807%, 25.878906%)" d="M 280.605469 288.832031 C 272.089844 288.832031 265.191406 281.917969 265.191406 273.390625 C 265.191406 264.863281 272.089844 257.953125 280.605469 257.953125 L 280.605469 288.832031 " fill-opacity="1" fill-rule="nonzero"/><path fill="rgb(88.62915%, 54.508972%, 13.729858%)" d="M 156.558594 309.398438 L 253.871094 309.398438 C 260.675781 309.398438 266.195312 303.871094 266.195312 297.054688 L 266.195312 294.445312 L 144.238281 294.445312 L 144.238281 297.054688 C 144.238281 303.871094 149.753906 309.398438 156.558594 309.398438 " fill-opacity="1" fill-rule="nonzero"/><path fill="rgb(93.728638%, 59.999084%, 14.898682%)" d="M 157.402344 307.425781 L 253.027344 307.425781 C 259.832031 307.425781 265.351562 301.898438 265.351562 295.082031 L 265.351562 292.472656 L 145.082031 292.472656 L 145.082031 295.082031 C 145.082031 301.898438 150.601562 307.425781 157.402344 307.425781 " fill-opacity="1" fill-rule="nonzero"/><path fill="rgb(46.669006%, 26.269531%, 18.429565%)" d="M 143.390625 296.597656 L 266.519531 296.597656 C 268.710938 296.597656 270.488281 294.824219 270.488281 292.625 L 270.488281 289.277344 C 270.488281 287.082031 268.710938 285.304688 266.519531 285.304688 L 143.390625 285.304688 C 141.203125 285.304688 139.421875 287.082031 139.421875 289.277344 L 139.421875 292.625 C 139.421875 294.824219 141.203125 296.597656 143.390625 296.597656 " fill-opacity="1" fill-rule="nonzero"/><path fill="rgb(85.879517%, 31.759644%, 14.898682%)" d="M 228.902344 281.273438 L 264.011719 281.273438 C 266.234375 281.273438 268.039062 283.074219 268.039062 285.304688 C 268.039062 287.53125 266.234375 289.335938 264.011719 289.335938 L 228.902344 289.335938 C 226.679688 289.335938 224.875 287.53125 224.875 285.304688 C 224.875 283.074219 226.679688 281.273438 228.902344 281.273438 " fill-opacity="1" fill-rule="nonzero"/><path fill="rgb(85.879517%, 31.759644%, 14.898682%)" d="M 144.78125 277.71875 L 179.886719 277.71875 C 182.113281 277.71875 183.917969 279.523438 183.917969 281.75 C 183.917969 283.980469 182.113281 285.785156 179.886719 285.785156 L 144.78125 285.785156 C 142.554688 285.785156 140.753906 283.980469 140.753906 281.75 C 140.753906 279.523438 142.554688 277.71875 144.78125 277.71875 " fill-opacity="1" fill-rule="nonzero"/><g clip-path="url(#id4)"><path fill="rgb(95.689392%, 72.549438%, 14.509583%)" d="M 246.457031 279.496094 L 204.417969 312.558594 L 161.164062 284.355469 L 161.164062 281.195312 L 246.457031 276.335938 L 246.457031 279.496094 " fill-opacity="1" fill-rule="nonzero"/></g><path fill="rgb(100%, 78.819275%, 19.999695%)" d="M 246.457031 276.335938 L 204.417969 309.398438 L 161.164062 281.195312 L 171.261719 262.171875 L 236.351562 262.171875 L 246.457031 276.335938 " fill-opacity="1" fill-rule="nonzero"/><path fill="rgb(75.689697%, 76.858521%, 23.919678%)" d="M 278.011719 276.339844 C 278.011719 277.152344 277.777344 277.953125 277.328125 278.734375 C 277.105469 279.128906 276.824219 279.515625 276.492188 279.898438 C 275.882812 280.136719 275.480469 281.039062 275.074219 281.039062 C 269.015625 281.941406 262.140625 279.234375 258.5 286.910156 C 258.097656 288.265625 255.675781 286.007812 254.199219 285.5 C 253.566406 285.203125 252.941406 284.964844 252.335938 284.796875 C 250.3125 284.246094 248.472656 284.515625 247.019531 286.261719 C 246.660156 286.699219 246.320312 287.226562 246.007812 287.859375 C 245.566406 288.71875 245.160156 289.167969 245.160156 290.074219 C 240.011719 283.976562 235.3125 281.4375 230.71875 284.839844 C 230.207031 285.214844 229.699219 285.667969 229.191406 286.191406 C 228.589844 287.363281 226.96875 289.167969 226.164062 288.71875 C 223.738281 287.363281 222.523438 282.847656 218.886719 283.753906 C 215.652344 284.652344 215.25 289.167969 212.824219 290.523438 C 210.398438 291.878906 209.992188 286.910156 208.753906 285.027344 C 208.527344 284.574219 208.273438 284.144531 207.972656 283.753906 C 207.570312 283.300781 206.761719 282.394531 205.953125 282.847656 C 201.910156 284.652344 199.484375 290.523438 194.730469 289.710938 C 194.195312 289.542969 193.660156 289.367188 193.113281 289.214844 C 191.472656 288.734375 189.730469 288.433594 187.757812 288.265625 C 186.144531 288.265625 185.738281 285.105469 183.734375 284.171875 C 183.179688 283.671875 182.664062 283.425781 182.160156 283.367188 C 179.652344 283.070312 177.519531 287.585938 174.824219 286.460938 C 173.613281 286.007812 174.019531 282.847656 172.332031 280.933594 C 172.027344 280.484375 171.660156 280.058594 171.1875 279.6875 C 170.375 279.234375 169.167969 279.6875 167.953125 280.136719 C 165.125 281.941406 163.507812 286.007812 159.867188 285.105469 C 158.25 285.105469 159.058594 282.394531 158.25 281.039062 C 157.847656 280.589844 157.039062 279.6875 156.230469 279.6875 C 153.804688 279.234375 151.378906 281.492188 148.953125 280.136719 C 145.71875 278.78125 142.082031 278.78125 138.441406 278.78125 C 135.613281 278.78125 135.613281 275.167969 137.03125 272.957031 C 137.351562 272.472656 137.71875 272.023438 138.117188 271.597656 C 139.316406 270.335938 140.851562 269.367188 142.585938 268.863281 C 143.085938 268.609375 143.613281 268.363281 144.160156 268.117188 C 156.222656 262.746094 179.746094 259.09375 206.789062 259.09375 C 246.121094 259.09375 278.011719 266.8125 278.011719 276.339844 " fill-opacity="1" fill-rule="nonzero"/><path fill="rgb(66.668701%, 66.668701%, 18.03894%)" d="M 147.832031 270.738281 C 148.039062 271.246094 147.480469 271.890625 147.683594 272.402344 C 148.910156 274.289062 154.652344 273.195312 158.402344 273.023438 C 158.972656 272.980469 159.523438 272.953125 160.035156 272.953125 C 162.082031 272.949219 163.539062 273.371094 163.503906 274.910156 C 163.8125 275.089844 164.523438 275.121094 164.878906 275.136719 C 165.464844 275.175781 166.046875 275.179688 166.617188 275.15625 C 170.390625 275 173.816406 273.617188 177.402344 272.695312 C 178 272.542969 178.605469 272.40625 179.203125 272.351562 C 182.191406 272.910156 184.964844 273.921875 187.769531 273.960938 C 188.238281 273.96875 188.710938 273.953125 189.230469 273.941406 C 193.34375 274 194.109375 276.207031 197.164062 276.835938 C 201.457031 277.539062 201.945312 275.929688 203.128906 274.378906 C 203.371094 274.070312 203.640625 273.757812 203.984375 273.488281 C 204.46875 272.964844 205.585938 272.847656 206.25 273.042969 C 211.238281 274.425781 211.347656 277.605469 215.832031 279.464844 C 217.101562 280.023438 219.390625 279.617188 219.945312 278.972656 C 220.65625 277.835938 220.292969 276.644531 221 275.507812 C 221.101562 275.175781 221.867188 275.039062 222.4375 274.867188 C 227.542969 272.554688 232.628906 274.546875 236.859375 276.324219 C 237.332031 276.523438 237.789062 276.71875 238.238281 276.90625 C 238.953125 276.9375 239.15625 277.445312 239.867188 277.472656 C 240.273438 277.324219 241.136719 276.859375 241.238281 276.53125 C 241.640625 275.210938 238.175781 273.5625 240.414062 273.320312 C 243.429688 273.027344 245.558594 274.269531 247.925781 275.371094 C 248.394531 275.589844 248.878906 275.804688 249.378906 276.003906 C 251.046875 276.277344 252.578125 277.179688 254.453125 276.921875 C 257.097656 276.53125 255.414062 274.957031 255.363281 273.953125 C 259.378906 274.957031 268.179688 275.417969 268.582031 273.648438 C 268.980469 271.878906 232.929688 264.960938 209.121094 263.953125 C 178.820312 262.667969 152.679688 265.660156 144.578125 268.6875 C 143.1875 269.210938 146.40625 269.503906 147.832031 270.738281 " fill-opacity="1" fill-rule="nonzero"/><path fill="rgb(100%, 74.508667%, 37.249756%)" d="M 253.074219 261.621094 C 253.199219 262.0625 252.480469 262.714844 251.472656 263.082031 C 250.460938 263.453125 249.539062 263.390625 249.410156 262.953125 C 249.28125 262.511719 250 261.859375 251.007812 261.492188 C 252.019531 261.121094 252.945312 261.183594 253.074219 261.621094 " fill-opacity="1" fill-rule="nonzero"/><path fill="rgb(93.728638%, 59.999084%, 14.898682%)" d="M 268.546875 264.019531 C 268.546875 273.742188 240.171875 273.089844 205.167969 273.089844 C 170.164062 273.089844 141.792969 273.742188 141.792969 264.019531 C 141.792969 254.296875 170.164062 236.480469 205.167969 236.480469 C 240.171875 236.480469 268.546875 254.296875 268.546875 264.019531 " fill-opacity="1" fill-rule="nonzero"/><path fill="rgb(100%, 74.508667%, 37.249756%)" d="M 236.253906 259.960938 C 236.378906 260.398438 235.664062 261.054688 234.652344 261.421875 C 233.640625 261.785156 232.714844 261.730469 232.589844 261.292969 C 232.460938 260.851562 233.175781 260.199219 234.1875 259.832031 C 235.203125 259.460938 236.125 259.519531 236.253906 259.960938 " fill-opacity="1" fill-rule="nonzero"/><path fill="rgb(100%, 74.508667%, 37.249756%)" d="M 245.875 250.398438 C 246.003906 250.84375 245.285156 251.496094 244.277344 251.863281 C 243.265625 252.230469 242.339844 252.167969 242.214844 251.730469 C 242.085938 251.292969 242.804688 250.636719 243.8125 250.269531 C 244.824219 249.902344 245.75 249.960938 245.875 250.398438 " fill-opacity="1" fill-rule="nonzero"/><path fill="rgb(100%, 74.508667%, 37.249756%)" d="M 234.40625 243.886719 C 234.53125 244.324219 233.816406 244.980469 232.804688 245.347656 C 231.796875 245.714844 230.871094 245.65625 230.742188 245.21875 C 230.613281 244.777344 231.332031 244.125 232.34375 243.757812 C 233.355469 243.386719 234.277344 243.449219 234.40625 243.886719 " fill-opacity="1" fill-rule="nonzero"/><path fill="rgb(100%, 74.508667%, 37.249756%)" d="M 202.140625 248.328125 C 202.269531 248.769531 201.554688 249.421875 200.542969 249.789062 C 199.53125 250.15625 198.609375 250.09375 198.480469 249.65625 C 198.351562 249.21875 199.066406 248.5625 200.082031 248.195312 C 201.089844 247.828125 202.015625 247.890625 202.140625 248.328125 " fill-opacity="1" fill-rule="nonzero"/><path fill="rgb(100%, 74.508667%, 37.249756%)" d="M 162.320312 250.398438 C 162.449219 250.84375 161.730469 251.496094 160.722656 251.863281 C 159.707031 252.230469 158.785156 252.167969 158.65625 251.730469 C 158.527344 251.292969 159.246094 250.636719 160.257812 250.269531 C 161.269531 249.902344 162.191406 249.960938 162.320312 250.398438 " fill-opacity="1" fill-rule="nonzero"/><path fill="rgb(100%, 74.508667%, 37.249756%)" d="M 182.660156 251.4375 C 182.789062 251.878906 182.070312 252.53125 181.058594 252.898438 C 180.050781 253.265625 179.125 253.207031 178.996094 252.765625 C 178.867188 252.328125 179.585938 251.675781 180.597656 251.308594 C 181.609375 250.941406 182.53125 250.996094 182.660156 251.4375 " fill-opacity="1" fill-rule="nonzero"/><path fill="rgb(100%, 74.508667%, 37.249756%)" d="M 213.359375 259.960938 C 213.488281 260.398438 212.769531 261.054688 211.761719 261.421875 C 210.75 261.785156 209.824219 261.730469 209.695312 261.292969 C 209.566406 260.851562 210.285156 260.199219 211.300781 259.832031 C 212.308594 259.460938 213.230469 259.519531 213.359375 259.960938 " fill-opacity="1" fill-rule="nonzero"/><path fill="rgb(100%, 74.508667%, 37.249756%)" d="M 211.515625 238.78125 C 211.640625 239.21875 210.925781 239.875 209.914062 240.242188 C 208.902344 240.609375 207.976562 240.550781 207.851562 240.113281 C 207.722656 239.671875 208.441406 239.019531 209.449219 238.652344 C 210.460938 238.28125 211.386719 238.339844 211.515625 238.78125 " fill-opacity="1" fill-rule="nonzero"/><path fill="rgb(100%, 74.508667%, 37.249756%)" d="M 220.714844 251.429688 C 220.84375 251.867188 220.128906 252.523438 219.113281 252.894531 C 218.101562 253.257812 217.179688 253.199219 217.054688 252.761719 C 216.921875 252.320312 217.640625 251.667969 218.652344 251.300781 C 219.664062 250.933594 220.585938 250.992188 220.714844 251.429688 " fill-opacity="1" fill-rule="nonzero"/><path fill="rgb(100%, 74.508667%, 37.249756%)" d="M 188.199219 260.992188 C 188.328125 261.429688 187.609375 262.085938 186.597656 262.449219 C 185.585938 262.816406 184.664062 262.757812 184.539062 262.320312 C 184.410156 261.882812 185.125 261.226562 186.136719 260.859375 C 187.148438 260.492188 188.070312 260.550781 188.199219 260.992188 " fill-opacity="1" fill-rule="nonzero"/><path fill="rgb(100%, 74.508667%, 37.249756%)" d="M 186.351562 239.8125 C 186.480469 240.25 185.765625 240.90625 184.753906 241.269531 C 183.742188 241.636719 182.816406 241.582031 182.691406 241.140625 C 182.5625 240.703125 183.277344 240.050781 184.289062 239.683594 C 185.304688 239.3125 186.226562 239.371094 186.351562 239.8125 " fill-opacity="1" fill-rule="nonzero"/><path fill="rgb(100%, 74.508667%, 37.249756%)" d="M 169.496094 259.960938 C 169.625 260.398438 168.910156 261.054688 167.898438 261.421875 C 166.882812 261.785156 165.960938 261.730469 165.835938 261.292969 C 165.707031 260.851562 166.421875 260.199219 167.433594 259.832031 C 168.445312 259.460938 169.367188 259.519531 169.496094 259.960938 " fill-opacity="1" fill-rule="nonzero"/></svg>